<svg xmlns="http://www.w3.org/2000/svg" width="32" height="30" viewBox="0 0 32 30"><g><g/><g><g transform="translate(0.5,0.5)" style="visibility: visible;"><rect x="2.43" y="5.94" width="27" height="18" fill="#ffffff" stroke="#000000" stroke-width="1.3" pointer-events="all"/><path d="M 4.68 5.94 L 4.68 23.94 M 6.93 5.94 L 6.93 23.94 M 9.18 5.94 L 9.18 23.94 M 11.43 5.94 L 11.43 23.94 M 13.68 5.94 L 13.68 23.94 M 15.93 5.94 L 15.93 23.94 M 18.18 5.94 L 18.18 23.94" fill="none" stroke="white" stroke-width="9.3" stroke-miterlimit="10" pointer-events="stroke" visibility="hidden"/><path d="M 4.68 5.94 L 4.68 23.94 M 6.93 5.94 L 6.93 23.94 M 9.18 5.94 L 9.18 23.94 M 11.43 5.94 L 11.43 23.94 M 13.68 5.94 L 13.68 23.94 M 15.93 5.94 L 15.93 23.94 M 18.18 5.94 L 18.18 23.94" fill="none" stroke="#000000" stroke-width="1.3" stroke-miterlimit="10" pointer-events="all"/><path d="M 2.43 14.94 L 29.43 14.94 M 29.43 5.94 L 20.43 14.94 L 29.43 23.94 M 20.43 5.94 L 20.43 23.94 M 2.43 14.94 L 29.43 14.94" fill="none" stroke="white" stroke-width="9.3" stroke-miterlimit="10" pointer-events="stroke" visibility="hidden"/><path d="M 2.43 14.94 L 29.43 14.94 M 29.43 5.94 L 20.43 14.94 L 29.43 23.94 M 20.43 5.94 L 20.43 23.94 M 2.43 14.94 L 29.43 14.94" fill="none" stroke="#000000" stroke-width="1.3" stroke-miterlimit="10" pointer-events="all"/></g></g><g/><g/></g></svg>