<svg xmlns="http://www.w3.org/2000/svg" width="32" height="30" viewBox="0 0 32 30"><g><g/><g><g transform="translate(0.5,0.5)" style="visibility: visible;"><rect x="3.04" y="14.56" width="25.6" height="0.8" fill="#ffffff" stroke="#000000" stroke-width="1.3" pointer-events="all"/><path d="M 15.84 14.56 L 15.84 15.36 C 16.06 11.83 14.81 8.36 12.39 5.79 C 9.96 3.21 6.58 1.75 3.04 1.76 L 3.04 14.56 M 15.84 15.36 C 15.84 22.43 21.57 28.16 28.64 28.16 L 28.64 15.36" fill="none" stroke="white" stroke-width="9.3" stroke-miterlimit="10" pointer-events="stroke" visibility="hidden"/><path d="M 15.84 14.56 L 15.84 15.36 C 16.06 11.83 14.81 8.36 12.39 5.79 C 9.96 3.21 6.58 1.75 3.04 1.76 L 3.04 14.56 M 15.84 15.36 C 15.84 22.43 21.57 28.16 28.64 28.16 L 28.64 15.36" fill="none" stroke="#000000" stroke-width="1.3" stroke-miterlimit="10" pointer-events="all"/></g></g><g/><g/></g></svg>