<svg xmlns="http://www.w3.org/2000/svg" width="32" height="30" viewBox="0 0 32 30"><g><g/><g><g transform="translate(0.5,0.5)" style="visibility: visible;"><rect x="1.44" y="11.28" width="28.8" height="7.2" fill="#ffffff" stroke="#000000" stroke-width="1.3" pointer-events="all"/><path d="M 1.44 17.28 C 1.44 17.61 1.82 17.88 2.28 17.88 C 2.74 17.88 3.12 17.61 3.12 17.28 L 3.12 13.2 C 2.62 13.56 1.94 13.56 1.44 13.2 Z M 3.36 17.28 C 3.36 17.61 3.74 17.88 4.2 17.88 C 4.66 17.88 5.04 17.61 5.04 17.28 L 5.04 13.2 C 4.54 13.56 3.86 13.56 3.36 13.2 Z M 5.28 17.28 C 5.28 17.61 5.66 17.88 6.12 17.88 C 6.58 17.88 6.96 17.61 6.96 17.28 L 6.96 13.2 C 6.46 13.56 5.78 13.56 5.28 13.2 Z M 7.2 17.28 C 7.2 17.61 7.58 17.88 8.04 17.88 C 8.5 17.88 8.88 17.61 8.88 17.28 L 8.88 13.2 C 8.38 13.56 7.7 13.56 7.2 13.2 Z M 9.12 17.28 C 9.12 17.61 9.5 17.88 9.96 17.88 C 10.42 17.88 10.8 17.61 10.8 17.28 L 10.8 13.2 C 10.3 13.56 9.62 13.56 9.12 13.2 Z M 11.04 17.28 C 11.04 17.61 11.42 17.88 11.88 17.88 C 12.34 17.88 12.72 17.61 12.72 17.28 L 12.72 13.2 C 12.22 13.56 11.54 13.56 11.04 13.2 Z M 12.96 17.28 C 12.96 17.61 13.34 17.88 13.8 17.88 C 14.26 17.88 14.64 17.61 14.64 17.28 L 14.64 13.2 C 14.14 13.56 13.46 13.56 12.96 13.2 Z M 14.88 17.28 C 14.88 17.61 15.26 17.88 15.72 17.88 C 16.18 17.88 16.56 17.61 16.56 17.28 L 16.56 13.2 C 16.06 13.56 15.38 13.56 14.88 13.2 Z M 16.8 17.28 C 16.8 17.61 17.18 17.88 17.64 17.88 C 18.1 17.88 18.48 17.61 18.48 17.28 L 18.48 13.2 C 17.98 13.56 17.3 13.56 16.8 13.2 Z M 18.72 17.28 C 18.72 17.61 19.1 17.88 19.56 17.88 C 20.02 17.88 20.4 17.61 20.4 17.28 L 20.4 13.2 C 19.9 13.56 19.22 13.56 18.72 13.2 Z M 20.64 17.28 C 20.64 17.61 21.02 17.88 21.48 17.88 C 21.94 17.88 22.32 17.61 22.32 17.28 L 22.32 13.2 C 21.82 13.56 21.14 13.56 20.64 13.2 Z M 22.56 17.28 C 22.56 17.61 22.94 17.88 23.4 17.88 C 23.86 17.88 24.24 17.61 24.24 17.28 L 24.24 13.2 C 23.74 13.56 23.06 13.56 22.56 13.2 Z M 26.59 12.4 L 25.17 17.24 L 28.4 18.18 L 29.81 13.35 L 26.59 12.4 Z" fill="none" stroke="white" stroke-width="9.3" stroke-miterlimit="10" pointer-events="stroke" visibility="hidden"/><path d="M 1.44 17.28 C 1.44 17.61 1.82 17.88 2.28 17.88 C 2.74 17.88 3.12 17.61 3.12 17.28 L 3.12 13.2 C 2.62 13.56 1.94 13.56 1.44 13.2 Z M 3.36 17.28 C 3.36 17.61 3.74 17.88 4.2 17.88 C 4.66 17.88 5.04 17.61 5.04 17.28 L 5.04 13.2 C 4.54 13.56 3.86 13.56 3.36 13.2 Z M 5.28 17.28 C 5.28 17.61 5.66 17.88 6.12 17.88 C 6.58 17.88 6.96 17.61 6.96 17.28 L 6.96 13.2 C 6.46 13.56 5.78 13.56 5.28 13.2 Z M 7.2 17.28 C 7.2 17.61 7.58 17.88 8.04 17.88 C 8.5 17.88 8.88 17.61 8.88 17.28 L 8.88 13.2 C 8.38 13.56 7.7 13.56 7.2 13.2 Z M 9.12 17.28 C 9.12 17.61 9.5 17.88 9.96 17.88 C 10.42 17.88 10.8 17.61 10.8 17.28 L 10.8 13.2 C 10.3 13.56 9.62 13.56 9.12 13.2 Z M 11.04 17.28 C 11.04 17.61 11.42 17.88 11.88 17.88 C 12.34 17.88 12.72 17.61 12.72 17.28 L 12.72 13.2 C 12.22 13.56 11.54 13.56 11.04 13.2 Z M 12.96 17.28 C 12.96 17.61 13.34 17.88 13.8 17.88 C 14.26 17.88 14.64 17.61 14.64 17.28 L 14.64 13.2 C 14.14 13.56 13.46 13.56 12.96 13.2 Z M 14.88 17.28 C 14.88 17.61 15.26 17.88 15.72 17.88 C 16.18 17.88 16.56 17.61 16.56 17.28 L 16.56 13.2 C 16.06 13.56 15.38 13.56 14.88 13.2 Z M 16.8 17.28 C 16.8 17.61 17.18 17.88 17.64 17.88 C 18.1 17.88 18.48 17.61 18.48 17.28 L 18.48 13.2 C 17.98 13.56 17.3 13.56 16.8 13.2 Z M 18.72 17.28 C 18.72 17.61 19.1 17.88 19.56 17.88 C 20.02 17.88 20.4 17.61 20.4 17.28 L 20.4 13.2 C 19.9 13.56 19.22 13.56 18.72 13.2 Z M 20.64 17.28 C 20.64 17.61 21.02 17.88 21.48 17.88 C 21.94 17.88 22.32 17.61 22.32 17.28 L 22.32 13.2 C 21.82 13.56 21.14 13.56 20.64 13.2 Z M 22.56 17.28 C 22.56 17.61 22.94 17.88 23.4 17.88 C 23.86 17.88 24.24 17.61 24.24 17.28 L 24.24 13.2 C 23.74 13.56 23.06 13.56 22.56 13.2 Z M 26.59 12.4 L 25.17 17.24 L 28.4 18.18 L 29.81 13.35 L 26.59 12.4 Z" fill="none" stroke="#000000" stroke-width="1.3" stroke-miterlimit="10" pointer-events="all"/></g></g><g/><g/></g></svg>