<svg xmlns="http://www.w3.org/2000/svg" width="32" height="30" viewBox="0 0 32 30"><g><g/><g><g transform="translate(0.5,0.5)" style="visibility: visible;"><path d="M 24.67 10.2 L 26.23 22.6 C 26.52 24.42 25.71 26.25 24.16 27.25 C 18.85 28.08 13.44 28.08 8.13 27.25 C 6.58 26.25 5.77 24.42 6.06 22.6 L 7.61 10.2 C 7.91 8.83 9.39 7.78 11.23 7.62 L 21.06 7.62 C 22.9 7.78 24.38 8.83 24.67 10.2 Z M 10.81 7.62 L 8.15 4.35 M 13.76 7.62 L 12.88 3.88 M 17.3 7.62 L 18.48 3.88 M 20.25 7.62 L 23.21 4.35 M 24.09 4.52 C 18.62 3.67 13.03 3.67 7.56 4.52 L 5.2 2.46 C 12.19 1.04 19.46 1.04 26.45 2.46 Z" fill="#ffffff" stroke="#000000" stroke-width="1.3" stroke-linejoin="round" stroke-miterlimit="10" pointer-events="all"/></g></g><g/><g/></g></svg>