<svg xmlns="http://www.w3.org/2000/svg" width="32" height="30" viewBox="0 0 32 30"><g><g/><g><g transform="translate(0.5,0.5)" style="visibility: visible;"><rect x="2.43" y="6.75" width="21.6" height="16.2" rx="0.81" ry="0.81" fill="#ffffff" stroke="#000000" stroke-width="1.3" pointer-events="all"/><rect x="1.08" y="9.45" width="1.35" height="10.8" fill="#ffffff" stroke="#000000" stroke-width="1.3" pointer-events="all"/><path d="M 24.03 8.91 L 30.78 8.91 L 30.78 12.15 L 29.7 13.5 L 29.7 16.2 L 30.78 17.55 L 30.78 20.79 L 24.03 20.79 Z" fill="#ffffff" stroke="#000000" stroke-width="1.3" stroke-miterlimit="10" pointer-events="all"/><path d="M 30.78 12.15 L 24.03 12.15 M 30.78 17.55 L 24.03 17.55 M 30.78 20.25 L 24.03 20.25 M 30.78 9.45 L 24.03 9.45" fill="none" stroke="white" stroke-width="9.3" stroke-miterlimit="10" pointer-events="stroke" visibility="hidden"/><path d="M 30.78 12.15 L 24.03 12.15 M 30.78 17.55 L 24.03 17.55 M 30.78 20.25 L 24.03 20.25 M 30.78 9.45 L 24.03 9.45" fill="none" stroke="#000000" stroke-width="1.3" stroke-miterlimit="10" pointer-events="all"/><rect x="4.21" y="8.15" width="18.74" height="11.99" fill="none" stroke="white" stroke-width="9.3" pointer-events="stroke" visibility="hidden"/><rect x="4.21" y="8.15" width="18.74" height="11.99" fill="none" stroke="#000000" stroke-width="1.3" pointer-events="all"/><ellipse cx="4.32" cy="21.6" rx="0.54" ry="0.5400000000000001" fill="none" stroke="white" stroke-width="9.3" pointer-events="stroke" visibility="hidden"/><ellipse cx="4.32" cy="21.6" rx="0.54" ry="0.5400000000000001" fill="none" stroke="#000000" stroke-width="1.3" pointer-events="all"/><ellipse cx="5.94" cy="21.6" rx="0.54" ry="0.5400000000000001" fill="none" stroke="white" stroke-width="9.3" pointer-events="stroke" visibility="hidden"/><ellipse cx="5.94" cy="21.6" rx="0.54" ry="0.5400000000000001" fill="none" stroke="#000000" stroke-width="1.3" pointer-events="all"/><ellipse cx="7.56" cy="21.6" rx="0.54" ry="0.5400000000000001" fill="none" stroke="white" stroke-width="9.3" pointer-events="stroke" visibility="hidden"/><ellipse cx="7.56" cy="21.6" rx="0.54" ry="0.5400000000000001" fill="none" stroke="#000000" stroke-width="1.3" pointer-events="all"/><ellipse cx="9.18" cy="21.6" rx="0.54" ry="0.5400000000000001" fill="none" stroke="white" stroke-width="9.3" pointer-events="stroke" visibility="hidden"/><ellipse cx="9.18" cy="21.6" rx="0.54" ry="0.5400000000000001" fill="none" stroke="#000000" stroke-width="1.3" pointer-events="all"/><rect x="11.07" y="20.79" width="4.86" height="1.62" fill="none" stroke="white" stroke-width="9.3" pointer-events="stroke" visibility="hidden"/><rect x="11.07" y="20.79" width="4.86" height="1.62" fill="none" stroke="#000000" stroke-width="1.3" pointer-events="all"/></g></g><g/><g/></g></svg>