<svg xmlns="http://www.w3.org/2000/svg" width="32" height="30" viewBox="0 0 32 30"><g><g/><g><g transform="translate(0.5,0.5)" style="visibility: visible;"><path d="M 12.91 15.65 L 9.44 13.02 C 8.91 12.65 8.65 12.01 8.78 11.38 C 9.86 9.85 11.17 8.5 12.67 7.38 C 13.3 7.23 13.95 7.47 14.33 7.99 L 17.05 11.39 C 17.32 11.8 17.22 12.42 16.82 12.92 L 14.43 15.37 C 13.94 15.79 13.32 15.91 12.91 15.65 Z" fill="#ffffff" stroke="#000000" stroke-width="1.3" stroke-miterlimit="10" pointer-events="all"/><path d="M 13.71 16.24 C 13.57 16.3 13.38 16.24 13.3 16.09 C 13.21 15.93 13.26 15.76 13.41 15.69 C 14.96 14.72 16.24 13.4 17.17 11.82 C 17.27 11.76 17.4 11.76 17.52 11.82 C 17.63 11.88 17.71 11.99 17.73 12.11 C 16.76 13.81 15.39 15.22 13.71 16.24" fill="#ffffff" stroke="#000000" stroke-width="1.3" stroke-miterlimit="10" pointer-events="all"/><path d="M 2.34 1.44 L 29.34 1.44 L 29.34 8.64 L 18.54 8.64 L 9.54 17.64 L 9.54 28.44 L 2.34 28.44 Z" fill="#ffffff" stroke="#000000" stroke-width="1.3" stroke-miterlimit="10" pointer-events="all"/></g></g><g/><g/></g></svg>