<svg xmlns="http://www.w3.org/2000/svg" width="32" height="30" viewBox="0 0 32 30"><g><g/><g><g transform="translate(0.5,0.5)" style="visibility: visible;"><rect x="2.25" y="5.94" width="27.36" height="18" fill="#ffffff" stroke="#000000" stroke-width="1.3" pointer-events="all"/><path d="M 2.25 22.86 L 5.13 22.86 M 2.25 21.78 L 5.13 21.78 M 2.25 20.7 L 5.13 20.7 M 2.25 19.62 L 5.13 19.62 M 2.25 18.54 L 5.13 18.54 M 2.25 17.46 L 5.13 17.46 M 2.25 16.38 L 5.13 16.38 M 2.25 15.3 L 5.13 15.3 M 2.25 14.22 L 5.13 14.22 M 2.25 13.14 L 5.13 13.14 M 2.25 12.06 L 5.13 12.06 M 2.25 8.82 L 29.61 8.82 M 5.13 5.94 L 5.13 23.94 M 26.73 5.94 L 26.73 23.94 M 6.21 5.94 L 6.21 8.82 M 7.29 5.94 L 7.29 8.82 M 8.37 5.94 L 8.37 8.82 M 9.45 5.94 L 9.45 8.82 M 11.61 5.94 L 11.61 8.82 M 12.69 5.94 L 12.69 8.82 M 13.77 5.94 L 13.77 8.82 M 14.85 5.94 L 14.85 8.82 M 15.93 5.94 L 15.93 8.82 M 10.53 5.94 L 10.53 8.82 M 17.01 5.94 L 17.01 8.82 M 18.09 5.94 L 18.09 8.82 M 19.17 5.94 L 19.17 8.82 M 20.25 5.94 L 20.25 8.82 M 21.33 5.94 L 21.33 8.82 M 22.41 5.94 L 22.41 8.82 M 23.49 5.94 L 23.49 8.82 M 26.73 9.9 L 29.61 9.9 M 26.73 10.98 L 29.61 10.98 M 26.73 12.06 L 29.61 12.06 M 26.73 19.62 L 29.61 19.62 M 26.73 13.14 L 29.61 13.14 M 26.73 14.22 L 29.61 14.22 M 26.73 15.3 L 29.61 15.3 M 26.73 16.38 L 29.61 16.38 M 26.73 17.46 L 29.61 17.46 M 26.73 18.54 L 29.61 18.54 M 26.73 20.7 L 29.61 20.7 M 26.73 21.78 L 29.61 21.78 M 26.73 22.86 L 29.61 22.86 M 5.13 23.94 L 12.15 21.78 M 5.13 8.82 L 12.15 19.62 M 26.73 8.82 L 19.71 19.62 M 26.73 23.94 L 19.71 21.78 M 2.25 10.98 L 5.13 10.98 M 2.25 9.9 L 5.13 9.9 M 24.57 5.94 L 24.57 8.82 M 25.65 5.94 L 25.65 8.82" fill="none" stroke="white" stroke-width="9.3" stroke-miterlimit="10" pointer-events="stroke" visibility="hidden"/><path d="M 2.25 22.86 L 5.13 22.86 M 2.25 21.78 L 5.13 21.78 M 2.25 20.7 L 5.13 20.7 M 2.25 19.62 L 5.13 19.62 M 2.25 18.54 L 5.13 18.54 M 2.25 17.46 L 5.13 17.46 M 2.25 16.38 L 5.13 16.38 M 2.25 15.3 L 5.13 15.3 M 2.25 14.22 L 5.13 14.22 M 2.25 13.14 L 5.13 13.14 M 2.25 12.06 L 5.13 12.06 M 2.25 8.82 L 29.61 8.82 M 5.13 5.94 L 5.13 23.94 M 26.73 5.94 L 26.73 23.94 M 6.21 5.94 L 6.21 8.82 M 7.29 5.94 L 7.29 8.82 M 8.37 5.94 L 8.37 8.82 M 9.45 5.94 L 9.45 8.82 M 11.61 5.94 L 11.61 8.82 M 12.69 5.94 L 12.69 8.82 M 13.77 5.94 L 13.77 8.82 M 14.85 5.94 L 14.85 8.82 M 15.93 5.94 L 15.93 8.82 M 10.53 5.94 L 10.53 8.82 M 17.01 5.94 L 17.01 8.82 M 18.09 5.94 L 18.09 8.82 M 19.17 5.94 L 19.17 8.82 M 20.25 5.94 L 20.25 8.82 M 21.33 5.94 L 21.33 8.82 M 22.41 5.94 L 22.41 8.82 M 23.49 5.94 L 23.49 8.82 M 26.73 9.9 L 29.61 9.9 M 26.73 10.98 L 29.61 10.98 M 26.73 12.06 L 29.61 12.06 M 26.73 19.62 L 29.61 19.62 M 26.73 13.14 L 29.61 13.14 M 26.73 14.22 L 29.61 14.22 M 26.73 15.3 L 29.61 15.3 M 26.73 16.38 L 29.61 16.38 M 26.73 17.46 L 29.61 17.46 M 26.73 18.54 L 29.61 18.54 M 26.73 20.7 L 29.61 20.7 M 26.73 21.78 L 29.61 21.78 M 26.73 22.86 L 29.61 22.86 M 5.13 23.94 L 12.15 21.78 M 5.13 8.82 L 12.15 19.62 M 26.73 8.82 L 19.71 19.62 M 26.73 23.94 L 19.71 21.78 M 2.25 10.98 L 5.13 10.98 M 2.25 9.9 L 5.13 9.9 M 24.57 5.94 L 24.57 8.82 M 25.65 5.94 L 25.65 8.82" fill="none" stroke="#000000" stroke-width="1.3" stroke-miterlimit="10" pointer-events="all"/><rect x="12.15" y="19.62" width="7.56" height="2.16" fill="none" stroke="white" stroke-width="9.3" pointer-events="stroke" visibility="hidden"/><rect x="12.15" y="19.62" width="7.56" height="2.16" fill="none" stroke="#000000" stroke-width="1.3" pointer-events="all"/></g></g><g/><g/></g></svg>