<svg xmlns="http://www.w3.org/2000/svg" width="32" height="30" viewBox="0 0 32 30"><g><g/><g><g transform="translate(0.5,0.5)" style="visibility: visible;"><rect x="1.26" y="14.7" width="29.4" height="2.1" fill="#ffffff" stroke="#000000" stroke-width="1.3" pointer-events="all"/><path d="M 5.46 14.7 L 8.4 13.02 C 8.78 12.79 9.21 12.64 9.66 12.6 L 22.26 12.6 C 22.71 12.64 23.14 12.79 23.52 13.02 L 26.46 14.7 Z" fill="#ffffff" stroke="#000000" stroke-width="1.3" stroke-miterlimit="10" pointer-events="all"/><path d="M 13.44 13.02 L 13.44 14.7 M 14.7 13.02 L 14.7 14.7 M 15.96 13.02 L 15.96 14.7 M 18.48 13.02 L 18.48 14.7 M 17.22 13.02 L 17.22 14.7" fill="none" stroke="white" stroke-width="9.3" stroke-miterlimit="10" pointer-events="stroke" visibility="hidden"/><path d="M 13.44 13.02 L 13.44 14.7 M 14.7 13.02 L 14.7 14.7 M 15.96 13.02 L 15.96 14.7 M 18.48 13.02 L 18.48 14.7 M 17.22 13.02 L 17.22 14.7" fill="none" stroke="#000000" stroke-width="1.3" stroke-miterlimit="10" pointer-events="all"/></g></g><g/><g/></g></svg>