<svg xmlns="http://www.w3.org/2000/svg" width="32" height="30" viewBox="0 0 32 30"><g><g/><g><g transform="translate(0.5,0.5)" style="visibility: visible;"><rect x="0.73" y="2.19" width="29.2" height="25.55" fill="#ffffff" stroke="#000000" stroke-width="1.3" pointer-events="all"/><rect x="2.19" y="3.29" width="26.28" height="8.03" fill="none" stroke="white" stroke-width="9.3" pointer-events="stroke" visibility="hidden"/><rect x="2.19" y="3.29" width="26.28" height="8.03" fill="none" stroke="#000000" stroke-width="1.3" pointer-events="all"/><rect x="1.82" y="13.87" width="27.01" height="9.13" fill="none" stroke="white" stroke-width="9.3" pointer-events="stroke" visibility="hidden"/><rect x="1.82" y="13.87" width="27.01" height="9.13" fill="none" stroke="#000000" stroke-width="1.3" pointer-events="all"/><rect x="12.41" y="24.09" width="5.84" height="2.92" fill="none" stroke="white" stroke-width="9.3" pointer-events="stroke" visibility="hidden"/><rect x="12.41" y="24.09" width="5.84" height="2.92" fill="none" stroke="#000000" stroke-width="1.3" pointer-events="all"/><path d="M 0.73 12.41 L 29.93 12.41 M 1.82 15.7 L 28.84 15.7 M 1.82 17.52 L 28.84 17.52 M 1.82 19.34 L 28.84 19.34 M 10.95 21.17 L 10.95 23 M 19.71 21.17 L 19.71 23 M 1.82 21.17 L 28.84 21.17" fill="none" stroke="white" stroke-width="9.3" stroke-miterlimit="10" pointer-events="stroke" visibility="hidden"/><path d="M 0.73 12.41 L 29.93 12.41 M 1.82 15.7 L 28.84 15.7 M 1.82 17.52 L 28.84 17.52 M 1.82 19.34 L 28.84 19.34 M 10.95 21.17 L 10.95 23 M 19.71 21.17 L 19.71 23 M 1.82 21.17 L 28.84 21.17" fill="none" stroke="#000000" stroke-width="1.3" stroke-miterlimit="10" pointer-events="all"/></g></g><g/><g/></g></svg>