<svg xmlns="http://www.w3.org/2000/svg" width="32" height="30" viewBox="0 0 32 30"><g><g/><g><g transform="translate(0.5,0.5)" style="visibility: visible;"><path d="M 3.04 28.5 L 3.04 5.73 C 3.72 3.14 6.06 1.33 8.74 1.33 C 11.42 1.33 13.76 3.14 14.44 5.73 C 16.2 11.04 20.46 15.15 25.84 16.74 C 27.24 17.21 28.34 18.82 28.69 20.91 L 28.69 28.5 Z Z" fill="#ffffff" stroke="#000000" stroke-width="1.3" stroke-miterlimit="10" pointer-events="all"/><rect x="3.04" y="26.22" width="25.65" height="2.28" fill="none" stroke="white" stroke-width="9.3" pointer-events="stroke" visibility="hidden"/><rect x="3.04" y="26.22" width="25.65" height="2.28" fill="none" stroke="#000000" stroke-width="1.3" pointer-events="all"/><rect x="3.04" y="1.33" width="0" height="0" fill="none" stroke="white" stroke-width="9.3" pointer-events="stroke" visibility="hidden"/><rect x="3.04" y="1.33" width="0" height="0" fill="none" stroke="#000000" stroke-width="1.3" pointer-events="all"/><path d="M 3.61 26.22 L 3.61 28.5 M 4.75 26.22 L 4.75 28.5 M 5.89 26.22 L 5.89 28.5 M 7.03 26.22 L 7.03 28.5 M 8.17 26.22 L 8.17 28.5 M 9.31 26.22 L 9.31 28.5 M 10.45 26.22 L 10.45 28.5 M 11.59 26.22 L 11.59 28.5 M 12.73 26.22 L 12.73 28.5 M 4.18 26.22 L 4.18 28.5 M 5.32 26.22 L 5.32 28.5 M 6.46 26.22 L 6.46 28.5 M 7.6 26.22 L 7.6 28.5 M 8.74 26.22 L 8.74 28.5 M 9.88 26.22 L 9.88 28.5 M 11.02 26.22 L 11.02 28.5 M 12.16 26.22 L 12.16 28.5 M 13.3 26.22 L 13.3 28.5 M 13.87 26.22 L 13.87 28.5 M 15.01 26.22 L 15.01 28.5 M 16.15 26.22 L 16.15 28.5 M 17.29 26.22 L 17.29 28.5 M 18.43 26.22 L 18.43 28.5 M 19.57 26.22 L 19.57 28.5 M 20.71 26.22 L 20.71 28.5 M 21.85 26.22 L 21.85 28.5 M 22.99 26.22 L 22.99 28.5 M 14.44 26.22 L 14.44 28.5 M 15.58 26.22 L 15.58 28.5 M 16.72 26.22 L 16.72 28.5 M 17.86 26.22 L 17.86 28.5 M 19 26.22 L 19 28.5 M 20.14 26.22 L 20.14 28.5 M 21.28 26.22 L 21.28 28.5 M 22.42 26.22 L 22.42 28.5 M 23.56 26.22 L 23.56 28.5 M 24.13 26.22 L 24.13 28.5 M 25.27 26.22 L 25.27 28.5 M 26.41 26.22 L 26.41 28.5 M 27.55 26.22 L 27.55 28.5 M 24.7 26.22 L 24.7 28.5 M 25.84 26.22 L 25.84 28.5 M 26.98 26.22 L 26.98 28.5 M 28.12 26.22 L 28.12 28.5" fill="none" stroke="white" stroke-width="9.3" stroke-miterlimit="10" pointer-events="stroke" visibility="hidden"/><path d="M 3.61 26.22 L 3.61 28.5 M 4.75 26.22 L 4.75 28.5 M 5.89 26.22 L 5.89 28.5 M 7.03 26.22 L 7.03 28.5 M 8.17 26.22 L 8.17 28.5 M 9.31 26.22 L 9.31 28.5 M 10.45 26.22 L 10.45 28.5 M 11.59 26.22 L 11.59 28.5 M 12.73 26.22 L 12.73 28.5 M 4.18 26.22 L 4.18 28.5 M 5.32 26.22 L 5.32 28.5 M 6.46 26.22 L 6.46 28.5 M 7.6 26.22 L 7.6 28.5 M 8.74 26.22 L 8.74 28.5 M 9.88 26.22 L 9.88 28.5 M 11.02 26.22 L 11.02 28.5 M 12.16 26.22 L 12.16 28.5 M 13.3 26.22 L 13.3 28.5 M 13.87 26.22 L 13.87 28.5 M 15.01 26.22 L 15.01 28.5 M 16.15 26.22 L 16.15 28.5 M 17.29 26.22 L 17.29 28.5 M 18.43 26.22 L 18.43 28.5 M 19.57 26.22 L 19.57 28.5 M 20.71 26.22 L 20.71 28.5 M 21.85 26.22 L 21.85 28.5 M 22.99 26.22 L 22.99 28.5 M 14.44 26.22 L 14.44 28.5 M 15.58 26.22 L 15.58 28.5 M 16.72 26.22 L 16.72 28.5 M 17.86 26.22 L 17.86 28.5 M 19 26.22 L 19 28.5 M 20.14 26.22 L 20.14 28.5 M 21.28 26.22 L 21.28 28.5 M 22.42 26.22 L 22.42 28.5 M 23.56 26.22 L 23.56 28.5 M 24.13 26.22 L 24.13 28.5 M 25.27 26.22 L 25.27 28.5 M 26.41 26.22 L 26.41 28.5 M 27.55 26.22 L 27.55 28.5 M 24.7 26.22 L 24.7 28.5 M 25.84 26.22 L 25.84 28.5 M 26.98 26.22 L 26.98 28.5 M 28.12 26.22 L 28.12 28.5" fill="none" stroke="#000000" stroke-width="1.3" stroke-miterlimit="10" pointer-events="all"/></g></g><g/><g/></g></svg>