<svg xmlns="http://www.w3.org/2000/svg" width="32" height="30" viewBox="0 0 32 30"><g><g/><g><g transform="translate(0.5,0.5)" style="visibility: visible;"><ellipse cx="16.86" cy="14.77" rx="7.892902408111533" ry="7.929786817915118" fill="#ffffff" stroke="#000000" stroke-width="1.3" pointer-events="all"/><ellipse cx="16.38" cy="21.85" rx="2.7888255175327417" ry="6.23809896342656" fill="#ffffff" stroke="#000000" stroke-width="1.3" pointer-events="all"/><path d="M 16.59 14.89 C 17.06 15.43 16.93 16.42 16.25 17.64 C 15.56 18.87 14.37 20.22 12.93 21.4 C 9.96 23.83 6.81 24.87 5.86 23.74 C 5.39 23.2 5.52 22.21 6.21 20.99 C 6.89 19.76 8.09 18.41 9.53 17.23 C 12.49 14.81 15.65 13.76 16.59 14.89 Z" fill="#ffffff" stroke="#000000" stroke-width="1.3" stroke-miterlimit="10" pointer-events="all"/><path d="M 2.25 7.78 C 3.01 6.2 6.99 6.55 11.14 8.56 C 13.15 9.53 14.92 10.77 16.07 12 C 17.22 13.23 17.65 14.34 17.26 15.1 C 16.49 16.67 12.52 16.32 8.36 14.32 C 6.36 13.34 4.58 12.1 3.43 10.87 C 2.28 9.65 1.86 8.53 2.25 7.78 Z" fill="#ffffff" stroke="#000000" stroke-width="1.3" stroke-miterlimit="10" pointer-events="all"/><path d="M 17.97 13.48 C 19.3 12.04 22.84 13.1 25.89 15.86 C 27.37 17.2 28.52 18.77 29.11 20.22 C 29.69 21.66 29.66 22.86 29.01 23.56 C 27.67 25.01 24.13 23.95 21.08 21.18 C 19.61 19.84 18.45 18.27 17.86 16.83 C 17.28 15.38 17.32 14.18 17.97 13.48 Z" fill="#ffffff" stroke="#000000" stroke-width="1.3" stroke-miterlimit="10" pointer-events="all"/><path d="M 30.84 8.18 C 31.22 8.8 30.82 9.83 29.75 11.04 C 28.67 12.25 27 13.54 25.1 14.62 C 21.18 16.84 17.42 17.58 16.66 16.28 C 16.28 15.66 16.67 14.63 17.75 13.42 C 18.83 12.21 20.5 10.92 22.4 9.84 C 26.31 7.62 30.08 6.88 30.84 8.18 Z" fill="#ffffff" stroke="#000000" stroke-width="1.3" stroke-miterlimit="10" pointer-events="all"/><path d="M 13.95 2.67 C 15.39 2.36 17.23 5.15 18.06 8.91 C 18.45 10.72 18.56 12.51 18.34 13.9 C 18.13 15.28 17.62 16.15 16.92 16.3 C 15.48 16.6 13.64 13.81 12.81 10.06 C 12.42 8.25 12.31 6.45 12.53 5.07 C 12.74 3.68 13.25 2.82 13.95 2.67 Z" fill="#ffffff" stroke="#000000" stroke-width="1.3" stroke-miterlimit="10" pointer-events="all"/><path d="M 21.55 6.48 C 22.08 6.75 22.3 7.52 22.18 8.64 C 22.06 9.75 21.6 11.11 20.9 12.42 C 19.47 15.12 17.44 16.85 16.37 16.29 C 15.85 16.02 15.62 15.25 15.75 14.13 C 15.87 13.02 16.33 11.65 17.02 10.35 C 18.46 7.65 20.48 5.93 21.55 6.48 Z" fill="#ffffff" stroke="#000000" stroke-width="1.3" stroke-miterlimit="10" pointer-events="all"/></g></g><g/><g/></g></svg>