<svg xmlns="http://www.w3.org/2000/svg" width="32" height="30" viewBox="0 0 32 30"><g><g/><g><g transform="translate(0.5,0.5)" style="visibility: visible;"><rect x="4.84" y="1.32" width="22" height="26.4" fill="#ffffff" stroke="#000000" stroke-width="1.3" pointer-events="all"/><ellipse cx="21.34" cy="7.92" rx="1.32" ry="1.32" fill="none" stroke="white" stroke-width="9.3" pointer-events="stroke" visibility="hidden"/><ellipse cx="21.34" cy="7.92" rx="1.32" ry="1.32" fill="none" stroke="#000000" stroke-width="1.3" pointer-events="all"/><ellipse cx="21.34" cy="21.12" rx="1.76" ry="1.76" fill="none" stroke="white" stroke-width="9.3" pointer-events="stroke" visibility="hidden"/><ellipse cx="21.34" cy="21.12" rx="1.76" ry="1.76" fill="none" stroke="#000000" stroke-width="1.3" pointer-events="all"/><ellipse cx="10.34" cy="21.12" rx="2.2" ry="2.2" fill="none" stroke="white" stroke-width="9.3" pointer-events="stroke" visibility="hidden"/><ellipse cx="10.34" cy="21.12" rx="2.2" ry="2.2" fill="none" stroke="#000000" stroke-width="1.3" pointer-events="all"/><ellipse cx="10.34" cy="7.92" rx="2.64" ry="2.64" fill="none" stroke="white" stroke-width="9.3" pointer-events="stroke" visibility="hidden"/><ellipse cx="10.34" cy="7.92" rx="2.64" ry="2.64" fill="none" stroke="#000000" stroke-width="1.3" pointer-events="all"/><path d="M 19.8 6.38 L 22.88 9.46 M 22.88 6.38 L 19.8 9.46 M 19.36 19.14 L 23.32 23.1 M 23.32 19.14 L 19.36 23.1 M 7.48 5.06 L 13.2 10.78 M 13.2 5.06 L 7.48 10.78 M 7.92 18.7 L 12.76 23.54 M 12.76 18.7 L 7.92 23.54" fill="none" stroke="white" stroke-width="9.3" stroke-miterlimit="10" pointer-events="stroke" visibility="hidden"/><path d="M 19.8 6.38 L 22.88 9.46 M 22.88 6.38 L 19.8 9.46 M 19.36 19.14 L 23.32 23.1 M 23.32 19.14 L 19.36 23.1 M 7.48 5.06 L 13.2 10.78 M 13.2 5.06 L 7.48 10.78 M 7.92 18.7 L 12.76 23.54 M 12.76 18.7 L 7.92 23.54" fill="none" stroke="#000000" stroke-width="1.3" stroke-miterlimit="10" pointer-events="all"/><rect x="7.04" y="27.72" width="2.2" height="0.88" fill="#ffffff" stroke="#000000" stroke-width="1.3" pointer-events="all"/><rect x="11" y="27.72" width="2.2" height="0.88" fill="#ffffff" stroke="#000000" stroke-width="1.3" pointer-events="all"/><rect x="14.96" y="27.72" width="2.2" height="0.88" fill="#ffffff" stroke="#000000" stroke-width="1.3" pointer-events="all"/><rect x="18.92" y="27.72" width="2.2" height="0.88" fill="#ffffff" stroke="#000000" stroke-width="1.3" pointer-events="all"/><rect x="22.88" y="27.72" width="2.2" height="0.88" fill="#ffffff" stroke="#000000" stroke-width="1.3" pointer-events="all"/></g></g><g/><g/></g></svg>