<svg xmlns="http://www.w3.org/2000/svg" width="32" height="30" viewBox="0 0 32 30"><g><g/><g><g transform="translate(0.5,0.5)" style="visibility: visible;"><rect x="2.43" y="1.35" width="27" height="27" fill="#ffffff" stroke="#000000" stroke-width="1.3" pointer-events="all"/><rect x="4.59" y="3.51" width="22.68" height="22.68" rx="2.16" ry="2.16" fill="none" stroke="white" stroke-width="9.3" pointer-events="stroke" visibility="hidden"/><rect x="4.59" y="3.51" width="22.68" height="22.68" rx="2.16" ry="2.16" fill="none" stroke="#000000" stroke-width="1.3" pointer-events="all"/><path d="M 27.81 3.78 C 26.19 5.26 24.82 6.99 23.76 8.91 C 23.44 9.33 22.91 9.53 22.39 9.42 C 21.88 9.31 21.47 8.9 21.36 8.39 C 21.25 7.87 21.45 7.34 21.87 7.02 C 23.79 5.96 25.52 4.59 27 2.97 C 27.22 2.75 27.59 2.75 27.81 2.97 C 28.03 3.19 28.03 3.56 27.81 3.78 Z" fill="#ffffff" stroke="#000000" stroke-width="1.3" stroke-miterlimit="10" pointer-events="all"/><ellipse cx="7.83" cy="22.95" rx="1.35" ry="1.35" fill="#000000" stroke="none" pointer-events="all"/></g></g><g/><g/></g></svg>