<svg xmlns="http://www.w3.org/2000/svg" width="32" height="30" viewBox="0 0 32 30"><g><g/><g><g transform="translate(0.5,0.5)" style="visibility: visible;"><path d="M 19.67 5.2 L 20.34 10.69 C 20.47 11.49 20.12 12.3 19.45 12.74 C 17.16 13.11 14.83 13.11 12.53 12.74 C 11.87 12.3 11.51 11.49 11.64 10.69 L 12.31 5.2 C 12.44 4.6 13.08 4.13 13.87 4.06 L 18.11 4.06 C 18.91 4.13 19.55 4.6 19.67 5.2 Z M 13.69 4.06 L 12.54 2.61 M 14.96 4.06 L 14.58 2.41 M 16.49 4.06 L 17 2.41 M 17.77 4.06 L 19.04 2.61 M 19.42 2.69 C 17.06 2.31 14.65 2.31 12.29 2.69 L 11.27 1.78 C 14.29 1.15 17.42 1.15 20.44 1.78 Z" fill="#ffffff" stroke="#000000" stroke-width="1.3" stroke-linejoin="round" stroke-miterlimit="10" pointer-events="all"/></g><g transform="translate(0.5,0.5)" style="visibility: visible;"><path d="M 19.67 20.84 L 20.34 26.33 C 20.47 27.13 20.12 27.94 19.45 28.38 C 17.16 28.75 14.83 28.75 12.53 28.38 C 11.87 27.94 11.51 27.13 11.64 26.33 L 12.31 20.84 C 12.44 20.24 13.08 19.77 13.87 19.7 L 18.11 19.7 C 18.91 19.77 19.55 20.24 19.67 20.84 Z M 13.69 19.7 L 12.54 18.25 M 14.96 19.7 L 14.58 18.05 M 16.49 19.7 L 17 18.05 M 17.77 19.7 L 19.04 18.25 M 19.42 18.33 C 17.06 17.95 14.65 17.95 12.29 18.33 L 11.27 17.42 C 14.29 16.79 17.42 16.79 20.44 17.42 Z" fill="#ffffff" stroke="#000000" stroke-width="1.3" stroke-linejoin="round" stroke-miterlimit="10" transform="rotate(180,15.87,22.77)" pointer-events="all"/></g><g transform="translate(0.5,0.5)" style="visibility: visible;"><rect x="6.67" y="5.75" width="18.4" height="18.4" fill="#ffffff" stroke="#000000" stroke-width="1.3" pointer-events="all"/></g></g><g/><g/></g></svg>