<svg xmlns="http://www.w3.org/2000/svg" width="32" height="30" viewBox="0 0 32 30"><g><g/><g><g transform="translate(0.5,0.5)" style="visibility: visible;"><path d="M 14.08 7.65 L 14.48 10.98 C 14.56 11.48 14.35 11.97 13.94 12.24 C 12.54 12.46 11.12 12.46 9.73 12.24 C 9.32 11.97 9.11 11.48 9.19 10.98 L 9.59 7.65 C 9.67 7.28 10.06 6.99 10.54 6.95 L 13.12 6.95 C 13.61 6.99 14 7.28 14.08 7.65 Z M 10.43 6.95 L 9.74 6.07 M 11.21 6.95 L 10.98 5.94 M 12.14 6.95 L 12.45 5.94 M 12.91 6.95 L 13.69 6.07 M 13.92 6.12 C 12.49 5.89 11.02 5.89 9.58 6.12 L 8.96 5.56 C 10.8 5.18 12.71 5.18 14.54 5.56 Z" fill="#ffffff" stroke="#000000" stroke-width="1.3" stroke-linejoin="round" stroke-miterlimit="10" pointer-events="all"/></g><g transform="translate(0.5,0.5)" style="visibility: visible;"><path d="M 14.08 19.97 L 14.48 23.3 C 14.56 23.8 14.35 24.29 13.94 24.56 C 12.54 24.78 11.12 24.78 9.73 24.56 C 9.32 24.29 9.11 23.8 9.19 23.3 L 9.59 19.97 C 9.67 19.6 10.06 19.31 10.54 19.27 L 13.12 19.27 C 13.61 19.31 14 19.6 14.08 19.97 Z M 10.43 19.27 L 9.74 18.39 M 11.21 19.27 L 10.98 18.26 M 12.14 19.27 L 12.45 18.26 M 12.91 19.27 L 13.69 18.39 M 13.92 18.44 C 12.49 18.21 11.02 18.21 9.58 18.44 L 8.96 17.88 C 10.8 17.5 12.71 17.5 14.54 17.88 Z" fill="#ffffff" stroke="#000000" stroke-width="1.3" stroke-linejoin="round" stroke-miterlimit="10" transform="rotate(180,11.76,21.14)" pointer-events="all"/></g><g transform="translate(0.5,0.5)" style="visibility: visible;"><path d="M 7.92 13.81 L 8.32 17.14 C 8.4 17.64 8.19 18.13 7.78 18.4 C 6.38 18.62 4.96 18.62 3.57 18.4 C 3.16 18.13 2.95 17.64 3.03 17.14 L 3.43 13.81 C 3.51 13.44 3.9 13.15 4.38 13.11 L 6.96 13.11 C 7.45 13.15 7.84 13.44 7.92 13.81 Z M 4.27 13.11 L 3.58 12.23 M 5.05 13.11 L 4.82 12.1 M 5.98 13.11 L 6.29 12.1 M 6.75 13.11 L 7.53 12.23 M 7.76 12.28 C 6.33 12.05 4.86 12.05 3.42 12.28 L 2.8 11.72 C 4.64 11.34 6.55 11.34 8.38 11.72 Z" fill="#ffffff" stroke="#000000" stroke-width="1.3" stroke-linejoin="round" stroke-miterlimit="10" transform="rotate(270,5.6,14.98)" pointer-events="all"/></g><g transform="translate(0.5,0.5)" style="visibility: visible;"><path d="M 28.64 13.81 L 29.04 17.14 C 29.12 17.64 28.91 18.13 28.5 18.4 C 27.1 18.62 25.68 18.62 24.29 18.4 C 23.88 18.13 23.67 17.64 23.75 17.14 L 24.15 13.81 C 24.23 13.44 24.62 13.15 25.1 13.11 L 27.68 13.11 C 28.17 13.15 28.56 13.44 28.64 13.81 Z M 24.99 13.11 L 24.3 12.23 M 25.77 13.11 L 25.54 12.1 M 26.7 13.11 L 27.01 12.1 M 27.47 13.11 L 28.25 12.23 M 28.48 12.28 C 27.05 12.05 25.58 12.05 24.14 12.28 L 23.52 11.72 C 25.36 11.34 27.27 11.34 29.1 11.72 Z" fill="#ffffff" stroke="#000000" stroke-width="1.3" stroke-linejoin="round" stroke-miterlimit="10" transform="rotate(90,26.32,14.98)" pointer-events="all"/></g><g transform="translate(0.5,0.5)" style="visibility: visible;"><path d="M 22.48 7.65 L 22.88 10.98 C 22.96 11.48 22.75 11.97 22.34 12.24 C 20.94 12.46 19.52 12.46 18.13 12.24 C 17.72 11.97 17.51 11.48 17.59 10.98 L 17.99 7.65 C 18.07 7.28 18.46 6.99 18.94 6.95 L 21.52 6.95 C 22.01 6.99 22.4 7.28 22.48 7.65 Z M 18.83 6.95 L 18.14 6.07 M 19.61 6.95 L 19.38 5.94 M 20.54 6.95 L 20.85 5.94 M 21.31 6.95 L 22.09 6.07 M 22.32 6.12 C 20.89 5.89 19.42 5.89 17.98 6.12 L 17.36 5.56 C 19.2 5.18 21.11 5.18 22.94 5.56 Z" fill="#ffffff" stroke="#000000" stroke-width="1.3" stroke-linejoin="round" stroke-miterlimit="10" pointer-events="all"/></g><g transform="translate(0.5,0.5)" style="visibility: visible;"><path d="M 22.48 19.97 L 22.88 23.3 C 22.96 23.8 22.75 24.29 22.34 24.56 C 20.94 24.78 19.52 24.78 18.13 24.56 C 17.72 24.29 17.51 23.8 17.59 23.3 L 17.99 19.97 C 18.07 19.6 18.46 19.31 18.94 19.27 L 21.52 19.27 C 22.01 19.31 22.4 19.6 22.48 19.97 Z M 18.83 19.27 L 18.14 18.39 M 19.61 19.27 L 19.38 18.26 M 20.54 19.27 L 20.85 18.26 M 21.31 19.27 L 22.09 18.39 M 22.32 18.44 C 20.89 18.21 19.42 18.21 17.98 18.44 L 17.36 17.88 C 19.2 17.5 21.11 17.5 22.94 17.88 Z" fill="#ffffff" stroke="#000000" stroke-width="1.3" stroke-linejoin="round" stroke-miterlimit="10" transform="rotate(180,20.16,21.14)" pointer-events="all"/></g><g transform="translate(0.5,0.5)" style="visibility: visible;"><rect x="4.76" y="7.98" width="22.4" height="14" fill="#ffffff" stroke="#000000" stroke-width="1.3" pointer-events="all"/></g></g><g/><g/></g></svg>