<svg xmlns="http://www.w3.org/2000/svg" width="32" height="30" viewBox="0 0 32 30"><g><g/><g><g transform="translate(0.5,0.5)" style="visibility: visible;"><path d="M 19.08 3.09 L 19.65 7.67 C 19.76 8.34 19.46 9.01 18.89 9.38 C 16.95 9.69 14.97 9.69 13.03 9.38 C 12.46 9.01 12.16 8.34 12.27 7.67 L 12.84 3.09 C 12.94 2.59 13.49 2.2 14.16 2.14 L 17.76 2.14 C 18.43 2.2 18.98 2.59 19.08 3.09 Z" fill="#ffffff" stroke="#000000" stroke-width="1.3" stroke-miterlimit="10" pointer-events="all"/><path d="M 18.94 2.05 C 19.09 2.1 19.18 2.3 19.13 2.47 C 19.07 2.65 18.9 2.74 18.75 2.68 C 16.88 2.22 14.94 2.22 13.07 2.68 C 12.95 2.65 12.85 2.55 12.82 2.42 C 12.78 2.29 12.8 2.15 12.88 2.05 C 14.87 1.52 16.94 1.52 18.94 2.05" fill="#ffffff" stroke="#000000" stroke-width="1.3" stroke-miterlimit="10" pointer-events="all"/></g><g transform="translate(0.5,0.5)" style="visibility: visible;"><path d="M 19.08 21.52 L 19.65 26.1 C 19.76 26.77 19.46 27.44 18.89 27.81 C 16.95 28.12 14.97 28.12 13.03 27.81 C 12.46 27.44 12.16 26.77 12.27 26.1 L 12.84 21.52 C 12.94 21.02 13.49 20.63 14.16 20.57 L 17.76 20.57 C 18.43 20.63 18.98 21.02 19.08 21.52 Z" fill="#ffffff" stroke="#000000" stroke-width="1.3" stroke-miterlimit="10" transform="rotate(180,15.96,24.04)" pointer-events="all"/><path d="M 18.94 20.48 C 19.09 20.53 19.18 20.73 19.13 20.9 C 19.07 21.08 18.9 21.17 18.75 21.11 C 16.88 20.65 14.94 20.65 13.07 21.11 C 12.95 21.08 12.85 20.98 12.82 20.85 C 12.78 20.72 12.8 20.58 12.88 20.48 C 14.87 19.95 16.94 19.95 18.94 20.48" fill="#ffffff" stroke="#000000" stroke-width="1.3" stroke-miterlimit="10" transform="rotate(180,15.96,24.04)" pointer-events="all"/></g><g transform="translate(0.5,0.5)" style="visibility: visible;"><path d="M 9.87 12.31 L 10.44 16.88 C 10.55 17.56 10.25 18.23 9.68 18.6 C 7.74 18.91 5.75 18.91 3.81 18.6 C 3.24 18.23 2.94 17.56 3.05 16.88 L 3.62 12.31 C 3.73 11.8 4.27 11.41 4.95 11.35 L 8.54 11.35 C 9.22 11.41 9.76 11.8 9.87 12.31 Z" fill="#ffffff" stroke="#000000" stroke-width="1.3" stroke-miterlimit="10" transform="rotate(270,6.75,14.82)" pointer-events="all"/><path d="M 9.72 11.26 C 9.88 11.32 9.96 11.51 9.91 11.69 C 9.86 11.86 9.69 11.96 9.53 11.9 C 7.66 11.44 5.72 11.44 3.85 11.9 C 3.73 11.87 3.64 11.77 3.6 11.64 C 3.56 11.51 3.59 11.37 3.66 11.26 C 5.66 10.74 7.73 10.74 9.72 11.26" fill="#ffffff" stroke="#000000" stroke-width="1.3" stroke-miterlimit="10" transform="rotate(270,6.75,14.82)" pointer-events="all"/></g><g transform="translate(0.5,0.5)" style="visibility: visible;"><path d="M 28.3 12.31 L 28.87 16.88 C 28.98 17.56 28.68 18.23 28.11 18.6 C 26.17 18.91 24.18 18.91 22.24 18.6 C 21.67 18.23 21.37 17.56 21.48 16.88 L 22.05 12.31 C 22.16 11.8 22.7 11.41 23.38 11.35 L 26.97 11.35 C 27.65 11.41 28.19 11.8 28.3 12.31 Z" fill="#ffffff" stroke="#000000" stroke-width="1.3" stroke-miterlimit="10" transform="rotate(90,25.18,14.82)" pointer-events="all"/><path d="M 28.15 11.26 C 28.31 11.32 28.39 11.51 28.34 11.69 C 28.29 11.86 28.12 11.96 27.96 11.9 C 26.09 11.44 24.15 11.44 22.28 11.9 C 22.16 11.87 22.07 11.77 22.03 11.64 C 21.99 11.51 22.02 11.37 22.09 11.26 C 24.09 10.74 26.16 10.74 28.15 11.26" fill="#ffffff" stroke="#000000" stroke-width="1.3" stroke-miterlimit="10" transform="rotate(90,25.18,14.82)" pointer-events="all"/></g><g transform="translate(0.5,0.5)" style="visibility: visible;"><rect x="6.46" y="5.32" width="19" height="19" fill="#ffffff" stroke="#000000" stroke-width="1.3" pointer-events="all"/></g></g><g/><g/></g></svg>