<svg xmlns="http://www.w3.org/2000/svg" width="32" height="30" viewBox="0 0 32 30"><g><g/><g><g transform="translate(0.5,0.5)" style="visibility: visible;"><path d="M 14.06 6.34 L 14.48 9.71 C 14.56 10.21 14.34 10.7 13.92 10.97 C 12.49 11.2 11.03 11.2 9.6 10.97 C 9.18 10.7 8.96 10.21 9.04 9.71 L 9.46 6.34 C 9.54 5.97 9.94 5.68 10.43 5.64 L 13.09 5.64 C 13.58 5.68 13.98 5.97 14.06 6.34 Z" fill="#ffffff" stroke="#000000" stroke-width="1.3" stroke-miterlimit="10" pointer-events="all"/><path d="M 13.95 5.57 C 14.07 5.61 14.13 5.75 14.09 5.88 C 14.05 6.01 13.93 6.08 13.81 6.04 C 12.43 5.7 11.01 5.7 9.63 6.04 C 9.54 6.01 9.47 5.94 9.44 5.85 C 9.42 5.75 9.43 5.65 9.49 5.57 C 10.96 5.18 12.48 5.18 13.95 5.57" fill="#ffffff" stroke="#000000" stroke-width="1.3" stroke-miterlimit="10" pointer-events="all"/></g><g transform="translate(0.5,0.5)" style="visibility: visible;"><path d="M 14.06 19.92 L 14.48 23.29 C 14.56 23.79 14.34 24.28 13.92 24.55 C 12.49 24.78 11.03 24.78 9.6 24.55 C 9.18 24.28 8.96 23.79 9.04 23.29 L 9.46 19.92 C 9.54 19.55 9.94 19.26 10.43 19.22 L 13.09 19.22 C 13.58 19.26 13.98 19.55 14.06 19.92 Z" fill="#ffffff" stroke="#000000" stroke-width="1.3" stroke-miterlimit="10" transform="rotate(180,11.76,21.77)" pointer-events="all"/><path d="M 13.95 19.15 C 14.07 19.19 14.13 19.33 14.09 19.46 C 14.05 19.59 13.93 19.66 13.81 19.62 C 12.43 19.28 11.01 19.28 9.63 19.62 C 9.54 19.59 9.47 19.52 9.44 19.43 C 9.42 19.33 9.43 19.23 9.49 19.15 C 10.96 18.76 12.48 18.76 13.95 19.15" fill="#ffffff" stroke="#000000" stroke-width="1.3" stroke-miterlimit="10" transform="rotate(180,11.76,21.77)" pointer-events="all"/></g><g transform="translate(0.5,0.5)" style="visibility: visible;"><path d="M 7.27 13.13 L 7.69 16.5 C 7.77 17 7.55 17.49 7.13 17.76 C 5.7 17.99 4.24 17.99 2.81 17.76 C 2.39 17.49 2.17 17 2.25 16.5 L 2.67 13.13 C 2.75 12.76 3.15 12.47 3.64 12.43 L 6.3 12.43 C 6.79 12.47 7.19 12.76 7.27 13.13 Z" fill="#ffffff" stroke="#000000" stroke-width="1.3" stroke-miterlimit="10" transform="rotate(270,4.97,14.98)" pointer-events="all"/><path d="M 7.16 12.36 C 7.28 12.4 7.34 12.54 7.3 12.67 C 7.26 12.8 7.14 12.87 7.02 12.83 C 5.64 12.49 4.22 12.49 2.84 12.83 C 2.75 12.8 2.68 12.73 2.65 12.64 C 2.63 12.54 2.64 12.44 2.7 12.36 C 4.17 11.97 5.69 11.97 7.16 12.36" fill="#ffffff" stroke="#000000" stroke-width="1.3" stroke-miterlimit="10" transform="rotate(270,4.97,14.98)" pointer-events="all"/></g><g transform="translate(0.5,0.5)" style="visibility: visible;"><path d="M 29.25 13.13 L 29.67 16.5 C 29.75 17 29.53 17.49 29.11 17.76 C 27.68 17.99 26.22 17.99 24.79 17.76 C 24.37 17.49 24.15 17 24.23 16.5 L 24.65 13.13 C 24.73 12.76 25.13 12.47 25.62 12.43 L 28.28 12.43 C 28.77 12.47 29.17 12.76 29.25 13.13 Z" fill="#ffffff" stroke="#000000" stroke-width="1.3" stroke-miterlimit="10" transform="rotate(90,26.95,14.98)" pointer-events="all"/><path d="M 29.14 12.36 C 29.26 12.4 29.32 12.54 29.28 12.67 C 29.24 12.8 29.12 12.87 29 12.83 C 27.62 12.49 26.2 12.49 24.82 12.83 C 24.73 12.8 24.66 12.73 24.63 12.64 C 24.61 12.54 24.62 12.44 24.68 12.36 C 26.15 11.97 27.67 11.97 29.14 12.36" fill="#ffffff" stroke="#000000" stroke-width="1.3" stroke-miterlimit="10" transform="rotate(90,26.95,14.98)" pointer-events="all"/></g><g transform="translate(0.5,0.5)" style="visibility: visible;"><path d="M 22.46 6.34 L 22.88 9.71 C 22.96 10.21 22.74 10.7 22.32 10.97 C 20.89 11.2 19.43 11.2 18 10.97 C 17.58 10.7 17.36 10.21 17.44 9.71 L 17.86 6.34 C 17.94 5.97 18.34 5.68 18.83 5.64 L 21.49 5.64 C 21.98 5.68 22.38 5.97 22.46 6.34 Z" fill="#ffffff" stroke="#000000" stroke-width="1.3" stroke-miterlimit="10" pointer-events="all"/><path d="M 22.35 5.57 C 22.47 5.61 22.53 5.75 22.49 5.88 C 22.45 6.01 22.33 6.08 22.21 6.04 C 20.83 5.7 19.41 5.7 18.03 6.04 C 17.94 6.01 17.87 5.94 17.84 5.85 C 17.82 5.75 17.83 5.65 17.89 5.57 C 19.36 5.18 20.88 5.18 22.35 5.57" fill="#ffffff" stroke="#000000" stroke-width="1.3" stroke-miterlimit="10" pointer-events="all"/></g><g transform="translate(0.5,0.5)" style="visibility: visible;"><path d="M 22.46 19.92 L 22.88 23.29 C 22.96 23.79 22.74 24.28 22.32 24.55 C 20.89 24.78 19.43 24.78 18 24.55 C 17.58 24.28 17.36 23.79 17.44 23.29 L 17.86 19.92 C 17.94 19.55 18.34 19.26 18.83 19.22 L 21.49 19.22 C 21.98 19.26 22.38 19.55 22.46 19.92 Z" fill="#ffffff" stroke="#000000" stroke-width="1.3" stroke-miterlimit="10" transform="rotate(180,20.16,21.77)" pointer-events="all"/><path d="M 22.35 19.15 C 22.47 19.19 22.53 19.33 22.49 19.46 C 22.45 19.59 22.33 19.66 22.21 19.62 C 20.83 19.28 19.41 19.28 18.03 19.62 C 17.94 19.59 17.87 19.52 17.84 19.43 C 17.82 19.33 17.83 19.23 17.89 19.15 C 19.36 18.76 20.88 18.76 22.35 19.15" fill="#ffffff" stroke="#000000" stroke-width="1.3" stroke-miterlimit="10" transform="rotate(180,20.16,21.77)" pointer-events="all"/></g><g transform="translate(0.5,0.5)" style="visibility: visible;"><rect x="4.76" y="7.98" width="22.4" height="14" fill="#ffffff" stroke="#000000" stroke-width="1.3" pointer-events="all"/></g></g><g/><g/></g></svg>