<svg xmlns="http://www.w3.org/2000/svg" width="32" height="30" viewBox="0 0 32 30"><g><g/><g><g transform="translate(0.5,0.5)" style="visibility: visible;"><path d="M 6.32 11.86 L 6.47 13.07 C 6.5 13.24 6.42 13.42 6.27 13.52 C 5.76 13.6 5.24 13.6 4.73 13.52 C 4.58 13.42 4.5 13.24 4.53 13.07 L 4.68 11.86 C 4.71 11.73 4.85 11.63 5.03 11.61 L 5.97 11.61 C 6.15 11.63 6.29 11.73 6.32 11.86 Z" fill="#ffffff" stroke="#000000" stroke-width="1.3" stroke-miterlimit="10" pointer-events="all"/><path d="M 6.28 11.59 C 6.32 11.6 6.35 11.65 6.33 11.7 C 6.32 11.75 6.27 11.77 6.23 11.76 C 5.74 11.64 5.23 11.64 4.74 11.76 C 4.71 11.75 4.68 11.72 4.67 11.69 C 4.66 11.65 4.67 11.62 4.69 11.59 C 5.21 11.45 5.76 11.45 6.28 11.59" fill="#ffffff" stroke="#000000" stroke-width="1.3" stroke-miterlimit="10" pointer-events="all"/></g><g transform="translate(0.5,0.5)" style="visibility: visible;"><path d="M 6.32 16.71 L 6.47 17.92 C 6.5 18.09 6.42 18.27 6.27 18.37 C 5.76 18.45 5.24 18.45 4.73 18.37 C 4.58 18.27 4.5 18.09 4.53 17.92 L 4.68 16.71 C 4.71 16.58 4.85 16.48 5.03 16.46 L 5.97 16.46 C 6.15 16.48 6.29 16.58 6.32 16.71 Z" fill="#ffffff" stroke="#000000" stroke-width="1.3" stroke-miterlimit="10" transform="rotate(180,5.5,17.38)" pointer-events="all"/><path d="M 6.28 16.44 C 6.32 16.45 6.35 16.5 6.33 16.55 C 6.32 16.6 6.27 16.62 6.23 16.61 C 5.74 16.49 5.23 16.49 4.74 16.61 C 4.71 16.6 4.68 16.57 4.67 16.54 C 4.66 16.5 4.67 16.47 4.69 16.44 C 5.21 16.3 5.76 16.3 6.28 16.44" fill="#ffffff" stroke="#000000" stroke-width="1.3" stroke-miterlimit="10" transform="rotate(180,5.5,17.38)" pointer-events="all"/></g><g transform="translate(0.5,0.5)" style="visibility: visible;"><path d="M 3.9 14.29 L 4.05 15.49 C 4.08 15.67 4 15.85 3.85 15.94 C 3.34 16.03 2.81 16.03 2.3 15.94 C 2.15 15.85 2.07 15.67 2.1 15.49 L 2.25 14.29 C 2.28 14.16 2.42 14.05 2.6 14.04 L 3.55 14.04 C 3.73 14.05 3.87 14.16 3.9 14.29 Z" fill="#ffffff" stroke="#000000" stroke-width="1.3" stroke-miterlimit="10" transform="rotate(270,3.08,14.95)" pointer-events="all"/><path d="M 3.86 14.01 C 3.9 14.03 3.92 14.08 3.91 14.13 C 3.89 14.17 3.85 14.2 3.81 14.18 C 3.32 14.06 2.81 14.06 2.31 14.18 C 2.28 14.17 2.26 14.15 2.25 14.11 C 2.24 14.08 2.24 14.04 2.26 14.01 C 2.79 13.88 3.33 13.88 3.86 14.01" fill="#ffffff" stroke="#000000" stroke-width="1.3" stroke-miterlimit="10" transform="rotate(270,3.08,14.95)" pointer-events="all"/></g><g transform="translate(0.5,0.5)" style="visibility: visible;"><path d="M 29.75 14.29 L 29.9 15.49 C 29.93 15.67 29.85 15.85 29.7 15.94 C 29.19 16.03 28.66 16.03 28.15 15.94 C 28 15.85 27.92 15.67 27.95 15.49 L 28.1 14.29 C 28.13 14.16 28.27 14.05 28.45 14.04 L 29.4 14.04 C 29.58 14.05 29.72 14.16 29.75 14.29 Z" fill="#ffffff" stroke="#000000" stroke-width="1.3" stroke-miterlimit="10" transform="rotate(90,28.93,14.95)" pointer-events="all"/><path d="M 29.71 14.01 C 29.75 14.03 29.77 14.08 29.76 14.13 C 29.74 14.17 29.7 14.2 29.66 14.18 C 29.17 14.06 28.66 14.06 28.16 14.18 C 28.13 14.17 28.11 14.15 28.1 14.11 C 28.09 14.08 28.09 14.04 28.11 14.01 C 28.64 13.88 29.18 13.88 29.71 14.01" fill="#ffffff" stroke="#000000" stroke-width="1.3" stroke-miterlimit="10" transform="rotate(90,28.93,14.95)" pointer-events="all"/></g><g transform="translate(0.5,0.5)" style="visibility: visible;"><path d="M 9.32 11.86 L 9.47 13.07 C 9.5 13.24 9.42 13.42 9.27 13.52 C 8.76 13.6 8.24 13.6 7.73 13.52 C 7.58 13.42 7.5 13.24 7.53 13.07 L 7.68 11.86 C 7.71 11.73 7.85 11.63 8.03 11.61 L 8.97 11.61 C 9.15 11.63 9.29 11.73 9.32 11.86 Z" fill="#ffffff" stroke="#000000" stroke-width="1.3" stroke-miterlimit="10" pointer-events="all"/><path d="M 9.28 11.59 C 9.32 11.6 9.35 11.65 9.33 11.7 C 9.32 11.75 9.27 11.77 9.23 11.76 C 8.74 11.64 8.23 11.64 7.74 11.76 C 7.71 11.75 7.68 11.72 7.67 11.69 C 7.66 11.65 7.67 11.62 7.69 11.59 C 8.21 11.45 8.76 11.45 9.28 11.59" fill="#ffffff" stroke="#000000" stroke-width="1.3" stroke-miterlimit="10" pointer-events="all"/></g><g transform="translate(0.5,0.5)" style="visibility: visible;"><path d="M 9.32 16.71 L 9.47 17.92 C 9.5 18.09 9.42 18.27 9.27 18.37 C 8.76 18.45 8.24 18.45 7.73 18.37 C 7.58 18.27 7.5 18.09 7.53 17.92 L 7.68 16.71 C 7.71 16.58 7.85 16.48 8.03 16.46 L 8.97 16.46 C 9.15 16.48 9.29 16.58 9.32 16.71 Z" fill="#ffffff" stroke="#000000" stroke-width="1.3" stroke-miterlimit="10" transform="rotate(180,8.5,17.38)" pointer-events="all"/><path d="M 9.28 16.44 C 9.32 16.45 9.35 16.5 9.33 16.55 C 9.32 16.6 9.27 16.62 9.23 16.61 C 8.74 16.49 8.23 16.49 7.74 16.61 C 7.71 16.6 7.68 16.57 7.67 16.54 C 7.66 16.5 7.67 16.47 7.69 16.44 C 8.21 16.3 8.76 16.3 9.28 16.44" fill="#ffffff" stroke="#000000" stroke-width="1.3" stroke-miterlimit="10" transform="rotate(180,8.5,17.38)" pointer-events="all"/></g><g transform="translate(0.5,0.5)" style="visibility: visible;"><path d="M 12.32 11.86 L 12.47 13.07 C 12.5 13.24 12.42 13.42 12.27 13.52 C 11.76 13.6 11.24 13.6 10.73 13.52 C 10.58 13.42 10.5 13.24 10.53 13.07 L 10.68 11.86 C 10.71 11.73 10.85 11.63 11.03 11.61 L 11.97 11.61 C 12.15 11.63 12.29 11.73 12.32 11.86 Z" fill="#ffffff" stroke="#000000" stroke-width="1.3" stroke-miterlimit="10" pointer-events="all"/><path d="M 12.28 11.59 C 12.32 11.6 12.35 11.65 12.33 11.7 C 12.32 11.75 12.27 11.77 12.23 11.76 C 11.74 11.64 11.23 11.64 10.74 11.76 C 10.71 11.75 10.68 11.72 10.67 11.69 C 10.66 11.65 10.67 11.62 10.69 11.59 C 11.21 11.45 11.76 11.45 12.28 11.59" fill="#ffffff" stroke="#000000" stroke-width="1.3" stroke-miterlimit="10" pointer-events="all"/></g><g transform="translate(0.5,0.5)" style="visibility: visible;"><path d="M 12.32 16.71 L 12.47 17.92 C 12.5 18.09 12.42 18.27 12.27 18.37 C 11.76 18.45 11.24 18.45 10.73 18.37 C 10.58 18.27 10.5 18.09 10.53 17.92 L 10.68 16.71 C 10.71 16.58 10.85 16.48 11.03 16.46 L 11.97 16.46 C 12.15 16.48 12.29 16.58 12.32 16.71 Z" fill="#ffffff" stroke="#000000" stroke-width="1.3" stroke-miterlimit="10" transform="rotate(180,11.5,17.38)" pointer-events="all"/><path d="M 12.28 16.44 C 12.32 16.45 12.35 16.5 12.33 16.55 C 12.32 16.6 12.27 16.62 12.23 16.61 C 11.74 16.49 11.23 16.49 10.74 16.61 C 10.71 16.6 10.68 16.57 10.67 16.54 C 10.66 16.5 10.67 16.47 10.69 16.44 C 11.21 16.3 11.76 16.3 12.28 16.44" fill="#ffffff" stroke="#000000" stroke-width="1.3" stroke-miterlimit="10" transform="rotate(180,11.5,17.38)" pointer-events="all"/></g><g transform="translate(0.5,0.5)" style="visibility: visible;"><path d="M 15.32 11.86 L 15.47 13.07 C 15.5 13.24 15.42 13.42 15.27 13.52 C 14.76 13.6 14.24 13.6 13.73 13.52 C 13.58 13.42 13.5 13.24 13.53 13.07 L 13.68 11.86 C 13.71 11.73 13.85 11.63 14.03 11.61 L 14.97 11.61 C 15.15 11.63 15.29 11.73 15.32 11.86 Z" fill="#ffffff" stroke="#000000" stroke-width="1.3" stroke-miterlimit="10" pointer-events="all"/><path d="M 15.28 11.59 C 15.32 11.6 15.35 11.65 15.33 11.7 C 15.32 11.75 15.27 11.77 15.23 11.76 C 14.74 11.64 14.23 11.64 13.74 11.76 C 13.71 11.75 13.68 11.72 13.67 11.69 C 13.66 11.65 13.67 11.62 13.69 11.59 C 14.21 11.45 14.76 11.45 15.28 11.59" fill="#ffffff" stroke="#000000" stroke-width="1.3" stroke-miterlimit="10" pointer-events="all"/></g><g transform="translate(0.5,0.5)" style="visibility: visible;"><path d="M 15.32 16.71 L 15.47 17.92 C 15.5 18.09 15.42 18.27 15.27 18.37 C 14.76 18.45 14.24 18.45 13.73 18.37 C 13.58 18.27 13.5 18.09 13.53 17.92 L 13.68 16.71 C 13.71 16.58 13.85 16.48 14.03 16.46 L 14.97 16.46 C 15.15 16.48 15.29 16.58 15.32 16.71 Z" fill="#ffffff" stroke="#000000" stroke-width="1.3" stroke-miterlimit="10" transform="rotate(180,14.5,17.38)" pointer-events="all"/><path d="M 15.28 16.44 C 15.32 16.45 15.35 16.5 15.33 16.55 C 15.32 16.6 15.27 16.62 15.23 16.61 C 14.74 16.49 14.23 16.49 13.74 16.61 C 13.71 16.6 13.68 16.57 13.67 16.54 C 13.66 16.5 13.67 16.47 13.69 16.44 C 14.21 16.3 14.76 16.3 15.28 16.44" fill="#ffffff" stroke="#000000" stroke-width="1.3" stroke-miterlimit="10" transform="rotate(180,14.5,17.38)" pointer-events="all"/></g><g transform="translate(0.5,0.5)" style="visibility: visible;"><path d="M 18.32 11.86 L 18.47 13.07 C 18.5 13.24 18.42 13.42 18.27 13.52 C 17.76 13.6 17.24 13.6 16.73 13.52 C 16.58 13.42 16.5 13.24 16.53 13.07 L 16.68 11.86 C 16.71 11.73 16.85 11.63 17.03 11.61 L 17.97 11.61 C 18.15 11.63 18.29 11.73 18.32 11.86 Z" fill="#ffffff" stroke="#000000" stroke-width="1.3" stroke-miterlimit="10" pointer-events="all"/><path d="M 18.28 11.59 C 18.32 11.6 18.35 11.65 18.33 11.7 C 18.32 11.75 18.27 11.77 18.23 11.76 C 17.74 11.64 17.23 11.64 16.74 11.76 C 16.71 11.75 16.68 11.72 16.67 11.69 C 16.66 11.65 16.67 11.62 16.69 11.59 C 17.21 11.45 17.76 11.45 18.28 11.59" fill="#ffffff" stroke="#000000" stroke-width="1.3" stroke-miterlimit="10" pointer-events="all"/></g><g transform="translate(0.5,0.5)" style="visibility: visible;"><path d="M 18.32 16.71 L 18.47 17.92 C 18.5 18.09 18.42 18.27 18.27 18.37 C 17.76 18.45 17.24 18.45 16.73 18.37 C 16.58 18.27 16.5 18.09 16.53 17.92 L 16.68 16.71 C 16.71 16.58 16.85 16.48 17.03 16.46 L 17.97 16.46 C 18.15 16.48 18.29 16.58 18.32 16.71 Z" fill="#ffffff" stroke="#000000" stroke-width="1.3" stroke-miterlimit="10" transform="rotate(180,17.5,17.38)" pointer-events="all"/><path d="M 18.28 16.44 C 18.32 16.45 18.35 16.5 18.33 16.55 C 18.32 16.6 18.27 16.62 18.23 16.61 C 17.74 16.49 17.23 16.49 16.74 16.61 C 16.71 16.6 16.68 16.57 16.67 16.54 C 16.66 16.5 16.67 16.47 16.69 16.44 C 17.21 16.3 17.76 16.3 18.28 16.44" fill="#ffffff" stroke="#000000" stroke-width="1.3" stroke-miterlimit="10" transform="rotate(180,17.5,17.38)" pointer-events="all"/></g><g transform="translate(0.5,0.5)" style="visibility: visible;"><path d="M 21.32 11.86 L 21.47 13.07 C 21.5 13.24 21.42 13.42 21.27 13.52 C 20.76 13.6 20.24 13.6 19.73 13.52 C 19.58 13.42 19.5 13.24 19.53 13.07 L 19.68 11.86 C 19.71 11.73 19.85 11.63 20.03 11.61 L 20.97 11.61 C 21.15 11.63 21.29 11.73 21.32 11.86 Z" fill="#ffffff" stroke="#000000" stroke-width="1.3" stroke-miterlimit="10" pointer-events="all"/><path d="M 21.28 11.59 C 21.32 11.6 21.35 11.65 21.33 11.7 C 21.32 11.75 21.27 11.77 21.23 11.76 C 20.74 11.64 20.23 11.64 19.74 11.76 C 19.71 11.75 19.68 11.72 19.67 11.69 C 19.66 11.65 19.67 11.62 19.69 11.59 C 20.21 11.45 20.76 11.45 21.28 11.59" fill="#ffffff" stroke="#000000" stroke-width="1.3" stroke-miterlimit="10" pointer-events="all"/></g><g transform="translate(0.5,0.5)" style="visibility: visible;"><path d="M 21.32 16.71 L 21.47 17.92 C 21.5 18.09 21.42 18.27 21.27 18.37 C 20.76 18.45 20.24 18.45 19.73 18.37 C 19.58 18.27 19.5 18.09 19.53 17.92 L 19.68 16.71 C 19.71 16.58 19.85 16.48 20.03 16.46 L 20.97 16.46 C 21.15 16.48 21.29 16.58 21.32 16.71 Z" fill="#ffffff" stroke="#000000" stroke-width="1.3" stroke-miterlimit="10" transform="rotate(180,20.5,17.38)" pointer-events="all"/><path d="M 21.28 16.44 C 21.32 16.45 21.35 16.5 21.33 16.55 C 21.32 16.6 21.27 16.62 21.23 16.61 C 20.74 16.49 20.23 16.49 19.74 16.61 C 19.71 16.6 19.68 16.57 19.67 16.54 C 19.66 16.5 19.67 16.47 19.69 16.44 C 20.21 16.3 20.76 16.3 21.28 16.44" fill="#ffffff" stroke="#000000" stroke-width="1.3" stroke-miterlimit="10" transform="rotate(180,20.5,17.38)" pointer-events="all"/></g><g transform="translate(0.5,0.5)" style="visibility: visible;"><path d="M 24.32 11.86 L 24.47 13.07 C 24.5 13.24 24.42 13.42 24.27 13.52 C 23.76 13.6 23.24 13.6 22.73 13.52 C 22.58 13.42 22.5 13.24 22.53 13.07 L 22.68 11.86 C 22.71 11.73 22.85 11.63 23.03 11.61 L 23.97 11.61 C 24.15 11.63 24.29 11.73 24.32 11.86 Z" fill="#ffffff" stroke="#000000" stroke-width="1.3" stroke-miterlimit="10" pointer-events="all"/><path d="M 24.28 11.59 C 24.32 11.6 24.35 11.65 24.33 11.7 C 24.32 11.75 24.27 11.77 24.23 11.76 C 23.74 11.64 23.23 11.64 22.74 11.76 C 22.71 11.75 22.68 11.72 22.67 11.69 C 22.66 11.65 22.67 11.62 22.69 11.59 C 23.21 11.45 23.76 11.45 24.28 11.59" fill="#ffffff" stroke="#000000" stroke-width="1.3" stroke-miterlimit="10" pointer-events="all"/></g><g transform="translate(0.5,0.5)" style="visibility: visible;"><path d="M 24.32 16.71 L 24.47 17.92 C 24.5 18.09 24.42 18.27 24.27 18.37 C 23.76 18.45 23.24 18.45 22.73 18.37 C 22.58 18.27 22.5 18.09 22.53 17.92 L 22.68 16.71 C 22.71 16.58 22.85 16.48 23.03 16.46 L 23.97 16.46 C 24.15 16.48 24.29 16.58 24.32 16.71 Z" fill="#ffffff" stroke="#000000" stroke-width="1.3" stroke-miterlimit="10" transform="rotate(180,23.5,17.38)" pointer-events="all"/><path d="M 24.28 16.44 C 24.32 16.45 24.35 16.5 24.33 16.55 C 24.32 16.6 24.27 16.62 24.23 16.61 C 23.74 16.49 23.23 16.49 22.74 16.61 C 22.71 16.6 22.68 16.57 22.67 16.54 C 22.66 16.5 22.67 16.47 22.69 16.44 C 23.21 16.3 23.76 16.3 24.28 16.44" fill="#ffffff" stroke="#000000" stroke-width="1.3" stroke-miterlimit="10" transform="rotate(180,23.5,17.38)" pointer-events="all"/></g><g transform="translate(0.5,0.5)" style="visibility: visible;"><path d="M 27.32 11.86 L 27.47 13.07 C 27.5 13.24 27.42 13.42 27.27 13.52 C 26.76 13.6 26.24 13.6 25.73 13.52 C 25.58 13.42 25.5 13.24 25.53 13.07 L 25.68 11.86 C 25.71 11.73 25.85 11.63 26.03 11.61 L 26.97 11.61 C 27.15 11.63 27.29 11.73 27.32 11.86 Z" fill="#ffffff" stroke="#000000" stroke-width="1.3" stroke-miterlimit="10" pointer-events="all"/><path d="M 27.28 11.59 C 27.32 11.6 27.35 11.65 27.33 11.7 C 27.32 11.75 27.27 11.77 27.23 11.76 C 26.74 11.64 26.23 11.64 25.74 11.76 C 25.71 11.75 25.68 11.72 25.67 11.69 C 25.66 11.65 25.67 11.62 25.69 11.59 C 26.21 11.45 26.76 11.45 27.28 11.59" fill="#ffffff" stroke="#000000" stroke-width="1.3" stroke-miterlimit="10" pointer-events="all"/></g><g transform="translate(0.5,0.5)" style="visibility: visible;"><path d="M 27.32 16.71 L 27.47 17.92 C 27.5 18.09 27.42 18.27 27.27 18.37 C 26.76 18.45 26.24 18.45 25.73 18.37 C 25.58 18.27 25.5 18.09 25.53 17.92 L 25.68 16.71 C 25.71 16.58 25.85 16.48 26.03 16.46 L 26.97 16.46 C 27.15 16.48 27.29 16.58 27.32 16.71 Z" fill="#ffffff" stroke="#000000" stroke-width="1.3" stroke-miterlimit="10" transform="rotate(180,26.5,17.38)" pointer-events="all"/><path d="M 27.28 16.44 C 27.32 16.45 27.35 16.5 27.33 16.55 C 27.32 16.6 27.27 16.62 27.23 16.61 C 26.74 16.49 26.23 16.49 25.74 16.61 C 25.71 16.6 25.68 16.57 25.67 16.54 C 25.66 16.5 25.67 16.47 25.69 16.44 C 26.21 16.3 26.76 16.3 27.28 16.44" fill="#ffffff" stroke="#000000" stroke-width="1.3" stroke-miterlimit="10" transform="rotate(180,26.5,17.38)" pointer-events="all"/></g><g transform="translate(0.5,0.5)" style="visibility: visible;"><ellipse cx="16" cy="14.95" rx="13" ry="2.5" fill="#ffffff" stroke="#000000" stroke-width="1.3" pointer-events="all"/></g></g><g/><g/></g></svg>