<svg xmlns="http://www.w3.org/2000/svg" id="Group_1088" width="32.545" height="30.762" data-name="Group 1088" viewBox="0 0 32.545 30.762">
    <defs>
        <style>
            .cls-1{fill:#6c6}
        </style>
    </defs>
    <path id="Path_420" d="M206.413 180.523c-1.115.223-1.56.669-1.783 2.006-.223 1.56.223 2.675 1.783 3.121 1.115.446 1.56.446 2.229 0 2.006-1.115 1.783-4.235-.223-4.9a9.38 9.38 0 0 1-1.115-.446 1.3 1.3 0 0 1-.892.223" class="cls-1" data-name="Path 420" transform="translate(-191.032 -180.3)"/>
    <path id="Path_421" d="M200.03 183.813a2.974 2.974 0 0 0-.669 4.012c.669 1.337 1.337 1.56 2.9 1.56 2.452 0 3.789-3.567 2.006-5.35a3.651 3.651 0 0 0-4.235-.223" class="cls-1" data-name="Path 421" transform="translate(-198.024 -176.68)"/>
    <path id="Path_422" d="M210.769 184.036a3.328 3.328 0 0 0-.669 2.229c0 3.344 4.012 4.458 5.573 1.56a3.352 3.352 0 0 0-.669-4.012c-1.56-.892-3.567-.669-4.235.223" class="cls-1" data-name="Path 422" transform="translate(-184.242 -176.68)"/>
    <path id="Path_423" d="M199.169 187.369c-.892 1.337-.892 7.8 0 9.808.223.669.669 1.115.892.892.892-.892 5.8-10.477 5.573-10.923s-.892-.446-3.121-.446c-2.452 0-2.9 0-3.344.669" class="cls-1" data-name="Path 423" transform="translate(-198.5 -172.434)"/>
    <path id="Path_424" d="M210.023 187.169c-.223 0-.223.446-.223.669 0 .669 5.35 10.7 5.8 10.7.223 0 .446-.446.892-1.337.892-1.783.892-8.471 0-9.808-.446-.669-.892-.892-3.344-.892-1.56.446-2.9.446-3.121.669" class="cls-1" data-name="Path 424" transform="translate(-184.611 -172.679)"/>
    <path id="Path_425" d="M228 203.323c-1.115-2.229-2.9-5.573-3.789-7.579s-1.783-3.567-2.006-3.567c-.669 0-2.452-.223-4.458-.223v-2.229c.223-.446.223-.446.892.223.892.892 2.006.892 2.006.223a26.122 26.122 0 0 0-2.452-6.687c-.669-.446-5.573-.446-6.91 0a4.229 4.229 0 0 0-1.56 1.783c-.669 1.56-1.56 5.127-1.115 5.35.446.446 1.783-.446 2.006-1.337l.446-.892v4.012c-2.452 0-4.235.223-4.458.223-.669.446-8.025 14.712-7.8 14.935h30.985z" class="cls-1" data-name="Path 425" transform="translate(-198.134 -176.797)"/>
</svg>
