<svg xmlns="http://www.w3.org/2000/svg" width="32" height="30" viewBox="0 0 32 30"><g><g/><g><g transform="translate(0.5,0.5)" style="visibility: visible;"><rect x="2.43" y="10.44" width="27" height="9" fill="#ffffff" stroke="#000000" stroke-width="1.3" transform="rotate(90,15.93,14.94)" pointer-events="all"/><path d="M 4.68 10.44 L 4.68 19.44 M 6.93 10.44 L 6.93 19.44 M 9.18 10.44 L 9.18 19.44 M 11.43 10.44 L 11.43 19.44 M 13.68 10.44 L 13.68 19.44 M 15.93 10.44 L 15.93 19.44 M 18.18 10.44 L 18.18 19.44 M 20.43 10.44 L 20.43 19.44 M 22.68 10.44 L 22.68 19.44 M 24.93 10.44 L 24.93 19.44 M 27.18 10.44 L 27.18 19.44" fill="none" stroke="white" stroke-width="9.3" stroke-miterlimit="10" transform="rotate(90,15.93,14.94)" pointer-events="stroke" visibility="hidden"/><path d="M 4.68 10.44 L 4.68 19.44 M 6.93 10.44 L 6.93 19.44 M 9.18 10.44 L 9.18 19.44 M 11.43 10.44 L 11.43 19.44 M 13.68 10.44 L 13.68 19.44 M 15.93 10.44 L 15.93 19.44 M 18.18 10.44 L 18.18 19.44 M 20.43 10.44 L 20.43 19.44 M 22.68 10.44 L 22.68 19.44 M 24.93 10.44 L 24.93 19.44 M 27.18 10.44 L 27.18 19.44" fill="none" stroke="#000000" stroke-width="1.3" stroke-miterlimit="10" transform="rotate(90,15.93,14.94)" pointer-events="all"/><path d="M 2.43 14.94 L 29.43 14.94 M 27.18 10.44 L 29.43 14.94 L 27.18 19.44" fill="none" stroke="white" stroke-width="9.3" stroke-miterlimit="10" transform="rotate(90,15.93,14.94)" pointer-events="stroke" visibility="hidden"/><path d="M 2.43 14.94 L 29.43 14.94 M 27.18 10.44 L 29.43 14.94 L 27.18 19.44" fill="none" stroke="#000000" stroke-width="1.3" stroke-miterlimit="10" transform="rotate(90,15.93,14.94)" pointer-events="all"/></g></g><g/><g/></g></svg>