<svg xmlns="http://www.w3.org/2000/svg" width="32" height="30" viewBox="0 0 32 30"><g><g/><g><g transform="translate(0.5,0.5)" style="visibility: visible;"><rect x="1.44" y="10.08" width="28.8" height="9.6" fill="#ffffff" stroke="#000000" stroke-width="1.3" pointer-events="all"/><path d="M 3.04 12.48 C 3.04 11.6 3.76 10.88 4.64 10.88 L 21.44 10.88 C 24.09 10.88 26.24 12.31 26.24 14.08 L 26.24 15.68 C 26.24 17.45 24.09 18.88 21.44 18.88 L 4.64 18.88 C 3.76 18.88 3.04 18.16 3.04 17.28 Z" fill="none" stroke="white" stroke-width="9.3" stroke-miterlimit="10" pointer-events="stroke" visibility="hidden"/><path d="M 3.04 12.48 C 3.04 11.6 3.76 10.88 4.64 10.88 L 21.44 10.88 C 24.09 10.88 26.24 12.31 26.24 14.08 L 26.24 15.68 C 26.24 17.45 24.09 18.88 21.44 18.88 L 4.64 18.88 C 3.76 18.88 3.04 18.16 3.04 17.28 Z" fill="none" stroke="#000000" stroke-width="1.3" stroke-miterlimit="10" pointer-events="all"/><path d="M 1.44 12.64 L 1.76 12.64 C 2.01 12.64 2.22 13.62 2.24 14.88 C 2.22 16.14 2.01 17.12 1.76 17.12 L 1.44 17.12" fill="none" stroke="white" stroke-width="9.3" stroke-miterlimit="10" pointer-events="stroke" visibility="hidden"/><path d="M 1.44 12.64 L 1.76 12.64 C 2.01 12.64 2.22 13.62 2.24 14.88 C 2.22 16.14 2.01 17.12 1.76 17.12 L 1.44 17.12" fill="none" stroke="#000000" stroke-width="1.3" stroke-miterlimit="10" pointer-events="all"/><rect x="1.68" y="14.56" width="2.88" height="0.64" rx="0.32" ry="0.32" fill="#ffffff" stroke="#000000" stroke-width="1.3" pointer-events="all"/><ellipse cx="5.44" cy="14.88" rx="0.64" ry="0.64" fill="#000000" stroke="none" pointer-events="all"/></g></g><g/><g/></g></svg>