<svg xmlns="http://www.w3.org/2000/svg" width="32" height="30" viewBox="0 0 32 30"><g><g/><g><g transform="translate(0.5,0.5)" style="visibility: visible;"><path d="M 0.98 24.5 L 30.38 24.5 L 30.38 22.05 L 25.77 7.35 C 25.32 6.13 24.29 5.21 23.03 4.9 L 8.33 4.9 C 6.95 5.12 5.8 6.05 5.29 7.35 L 0.98 22.05 Z" fill="#ffffff" stroke="#000000" stroke-width="1.3" stroke-miterlimit="10" pointer-events="all"/><path d="M 12.74 7.64 L 12.74 16.17 M 14.21 7.64 L 14.21 16.17 M 15.68 7.64 L 15.68 16.17 M 18.62 7.64 L 18.62 16.17 M 17.15 7.64 L 17.15 16.17 M 30.38 22.05 C 30.38 19.34 28.19 17.15 25.48 17.15 L 5.88 17.15 C 3.17 17.15 0.98 19.34 0.98 22.05 Z" fill="#ffffff" stroke="#000000" stroke-width="1.3" stroke-miterlimit="10" pointer-events="all"/></g></g><g/><g/></g></svg>