<svg xmlns="http://www.w3.org/2000/svg" width="32" height="30" viewBox="0 0 32 30"><g><g/><g><g transform="translate(0.5,0.5)" style="visibility: visible;"><path d="M 15.66 1.08 C 8.2 1.08 2.16 7.12 2.16 14.58 C 2.16 22.04 8.2 28.08 15.66 28.08 C 23.12 28.08 29.16 22.04 29.16 14.58 C 29.16 7.12 23.12 1.08 15.66 1.08 Z M 15.66 5.94 C 20.43 5.94 24.3 9.81 24.3 14.58 C 24.3 19.35 20.43 23.22 15.66 23.22 Z" fill="#ffffff" stroke="#000000" stroke-width="1.3" stroke-miterlimit="10" pointer-events="all"/><path d="M 15.66 5.94 L 15.66 14.58 M 15.66 14.58 L 8.91 19.98 M 15.66 14.58 L 22.41 19.98" fill="none" stroke="white" stroke-width="9.3" stroke-miterlimit="10" pointer-events="stroke" visibility="hidden"/><path d="M 15.66 5.94 L 15.66 14.58 M 15.66 14.58 L 8.91 19.98 M 15.66 14.58 L 22.41 19.98" fill="none" stroke="#000000" stroke-width="1.3" stroke-miterlimit="10" pointer-events="all"/><ellipse cx="15.66" cy="14.58" rx="2.7" ry="2.7" fill="#ffffff" stroke="#000000" stroke-width="1.3" pointer-events="all"/><ellipse cx="15.66" cy="14.58" rx="6.48" ry="6.48" fill="none" stroke="white" stroke-width="9.3" pointer-events="stroke" visibility="hidden"/><ellipse cx="15.66" cy="14.58" rx="6.48" ry="6.48" fill="none" stroke="#000000" stroke-width="1.3" pointer-events="all"/></g></g><g/><g/></g></svg>