<svg xmlns="http://www.w3.org/2000/svg" width="32" height="30" viewBox="0 0 32 30"><g><g/><g><g transform="translate(0.5,0.5)" style="visibility: visible;"><path d="M 26.11 6.47 L 27.99 21.64 C 28.35 23.87 27.37 26.11 25.48 27.33 C 19.03 28.35 12.47 28.35 6.02 27.33 C 4.13 26.11 3.15 23.87 3.51 21.64 L 5.39 6.47 C 5.75 4.8 7.55 3.5 9.79 3.31 L 21.71 3.31 C 23.95 3.5 25.75 4.8 26.11 6.47 Z" fill="#ffffff" stroke="#000000" stroke-width="1.3" stroke-miterlimit="10" pointer-events="all"/><path d="M 25.62 3 C 26.14 3.2 26.42 3.83 26.25 4.42 C 26.08 5 25.51 5.32 24.99 5.12 C 18.79 3.59 12.36 3.59 6.16 5.12 C 5.77 5.01 5.45 4.68 5.33 4.25 C 5.2 3.83 5.28 3.36 5.53 3 C 12.14 1.26 19.01 1.26 25.62 3" fill="#ffffff" stroke="#000000" stroke-width="1.3" stroke-miterlimit="10" pointer-events="all"/></g></g><g/><g/></g></svg>