<svg xmlns="http://www.w3.org/2000/svg" width="32" height="30" viewBox="0 0 32 30"><g><g/><g><g transform="translate(0.5,0.5)" style="visibility: visible;"><rect x="4.06" y="6.96" width="23.2" height="11.6" rx="1.16" ry="1.16" fill="#ffffff" stroke="#000000" stroke-width="1.3" pointer-events="all"/><rect x="6.96" y="1.16" width="17.4" height="27.26" fill="#ffffff" stroke="#000000" stroke-width="1.3" pointer-events="all"/><path d="M 10.44 1.16 L 10.44 10.44 M 13.92 1.16 L 13.92 10.44 M 17.4 1.16 L 17.4 10.44 M 20.88 1.16 L 20.88 10.44 M 6.96 10.44 L 24.36 10.44 M 6.96 14.5 L 24.36 14.5 M 24.36 22.62 L 18.56 22.62 L 17.4 21.46 L 13.92 21.46 L 12.76 22.62 L 6.96 22.62" fill="none" stroke="white" stroke-width="9.3" stroke-miterlimit="10" pointer-events="stroke" visibility="hidden"/><path d="M 10.44 1.16 L 10.44 10.44 M 13.92 1.16 L 13.92 10.44 M 17.4 1.16 L 17.4 10.44 M 20.88 1.16 L 20.88 10.44 M 6.96 10.44 L 24.36 10.44 M 6.96 14.5 L 24.36 14.5 M 24.36 22.62 L 18.56 22.62 L 17.4 21.46 L 13.92 21.46 L 12.76 22.62 L 6.96 22.62" fill="none" stroke="#000000" stroke-width="1.3" stroke-miterlimit="10" pointer-events="all"/><rect x="14.5" y="27.84" width="2.32" height="0.58" fill="none" stroke="white" stroke-width="9.3" pointer-events="stroke" visibility="hidden"/><rect x="14.5" y="27.84" width="2.32" height="0.58" fill="none" stroke="#000000" stroke-width="1.3" pointer-events="all"/><ellipse cx="25.81" cy="16.82" rx="0.58" ry="0.58" fill="none" stroke="white" stroke-width="9.3" pointer-events="stroke" visibility="hidden"/><ellipse cx="25.81" cy="16.82" rx="0.58" ry="0.58" fill="none" stroke="#000000" stroke-width="1.3" pointer-events="all"/></g></g><g/><g/></g></svg>