<svg xmlns="http://www.w3.org/2000/svg" width="32" height="30" viewBox="0 0 32 30"><g><g/><g><g transform="translate(0.5,0.5)" style="visibility: visible;"><rect x="1.17" y="2.73" width="29.25" height="23.4" fill="#ffffff" stroke="#000000" stroke-width="1.3" pointer-events="all"/><ellipse cx="25.55" cy="8.58" rx="1.17" ry="1.17" fill="none" stroke="white" stroke-width="9.3" pointer-events="stroke" visibility="hidden"/><ellipse cx="25.55" cy="8.58" rx="1.17" ry="1.17" fill="none" stroke="#000000" stroke-width="1.3" pointer-events="all"/><ellipse cx="25.55" cy="20.28" rx="1.56" ry="1.56" fill="none" stroke="white" stroke-width="9.3" pointer-events="stroke" visibility="hidden"/><ellipse cx="25.55" cy="20.28" rx="1.56" ry="1.56" fill="none" stroke="#000000" stroke-width="1.3" pointer-events="all"/><ellipse cx="6.04" cy="20.28" rx="1.9500000000000002" ry="1.9500000000000002" fill="none" stroke="white" stroke-width="9.3" pointer-events="stroke" visibility="hidden"/><ellipse cx="6.04" cy="20.28" rx="1.9500000000000002" ry="1.9500000000000002" fill="none" stroke="#000000" stroke-width="1.3" pointer-events="all"/><ellipse cx="6.04" cy="8.58" rx="2.34" ry="2.34" fill="none" stroke="white" stroke-width="9.3" pointer-events="stroke" visibility="hidden"/><ellipse cx="6.04" cy="8.58" rx="2.34" ry="2.34" fill="none" stroke="#000000" stroke-width="1.3" pointer-events="all"/><path d="M 24.18 7.21 L 26.91 9.95 M 26.91 7.21 L 24.18 9.95 M 23.79 18.53 L 27.3 22.04 M 27.3 18.53 L 23.79 22.04 M 3.51 6.04 L 8.58 11.12 M 8.58 6.04 L 3.51 11.12 M 3.9 18.14 L 8.19 22.43 M 8.19 18.14 L 3.9 22.43" fill="none" stroke="white" stroke-width="9.3" stroke-miterlimit="10" pointer-events="stroke" visibility="hidden"/><path d="M 24.18 7.21 L 26.91 9.95 M 26.91 7.21 L 24.18 9.95 M 23.79 18.53 L 27.3 22.04 M 27.3 18.53 L 23.79 22.04 M 3.51 6.04 L 8.58 11.12 M 8.58 6.04 L 3.51 11.12 M 3.9 18.14 L 8.19 22.43 M 8.19 18.14 L 3.9 22.43" fill="none" stroke="#000000" stroke-width="1.3" stroke-miterlimit="10" pointer-events="all"/><rect x="11.89" y="4.68" width="7.8" height="19.5" rx="1.17" ry="1.17" fill="none" stroke="white" stroke-width="9.3" pointer-events="stroke" visibility="hidden"/><rect x="11.89" y="4.68" width="7.8" height="19.5" rx="1.17" ry="1.17" fill="none" stroke="#000000" stroke-width="1.3" pointer-events="all"/><rect x="3.12" y="26.13" width="1.95" height="0.78" fill="#ffffff" stroke="#000000" stroke-width="1.3" pointer-events="all"/><rect x="6.63" y="26.13" width="1.95" height="0.78" fill="#ffffff" stroke="#000000" stroke-width="1.3" pointer-events="all"/><rect x="10.14" y="26.13" width="1.95" height="0.78" fill="#ffffff" stroke="#000000" stroke-width="1.3" pointer-events="all"/><rect x="13.65" y="26.13" width="1.95" height="0.78" fill="#ffffff" stroke="#000000" stroke-width="1.3" pointer-events="all"/><rect x="17.16" y="26.13" width="1.95" height="0.78" fill="#ffffff" stroke="#000000" stroke-width="1.3" pointer-events="all"/><rect x="20.67" y="26.13" width="1.95" height="0.78" fill="#ffffff" stroke="#000000" stroke-width="1.3" pointer-events="all"/><rect x="24.18" y="26.13" width="1.95" height="0.78" fill="#ffffff" stroke="#000000" stroke-width="1.3" pointer-events="all"/><rect x="27.69" y="26.13" width="1.95" height="0.78" fill="#ffffff" stroke="#000000" stroke-width="1.3" pointer-events="all"/></g></g><g/><g/></g></svg>