<svg xmlns="http://www.w3.org/2000/svg" width="32" height="30" viewBox="0 0 32 30"><g><g/><g><g transform="translate(0.5,0.5)" style="visibility: visible;"><path d="M 29.04 25.08 L 29.04 25.96 C 29.04 26.43 28.85 26.88 28.52 27.21 C 28.19 27.54 27.75 27.72 27.28 27.72 L 4.4 27.72 C 3.43 27.72 2.64 26.93 2.64 25.96 L 2.64 25.08 Z" fill="#ffffff" stroke="#000000" stroke-width="1.3" stroke-miterlimit="10" pointer-events="all"/><rect x="2.64" y="3.54" width="26.4" height="20.67" fill="#ffffff" stroke="#000000" stroke-width="1.3" pointer-events="all"/><path d="M 5.28 3.54 C 5.14 3 5.26 2.43 5.61 2 C 5.96 1.56 6.49 1.32 7.04 1.34 L 24.64 1.34 C 25.19 1.32 25.72 1.56 26.07 2 C 26.42 2.43 26.54 3 26.4 3.54" fill="none" stroke="white" stroke-width="9.3" stroke-miterlimit="10" pointer-events="stroke" visibility="hidden"/><path d="M 5.28 3.54 C 5.14 3 5.26 2.43 5.61 2 C 5.96 1.56 6.49 1.32 7.04 1.34 L 24.64 1.34 C 25.19 1.32 25.72 1.56 26.07 2 C 26.42 2.43 26.54 3 26.4 3.54" fill="none" stroke="#000000" stroke-width="1.3" stroke-miterlimit="10" pointer-events="all"/><rect x="22.44" y="27.72" width="2.64" height="0.88" fill="#ffffff" stroke="#000000" stroke-width="1.3" pointer-events="all"/></g></g><g/><g/></g></svg>