<svg xmlns="http://www.w3.org/2000/svg" width="32" height="30" viewBox="0 0 32 30"><g><g/><g><g transform="translate(0.5,0.5)" style="visibility: visible;"><rect x="1.11" y="8.51" width="29.6" height="12.95" rx="1.48" ry="1.48" fill="#ffffff" stroke="#000000" stroke-width="1.3" pointer-events="all"/><rect x="2.59" y="12.21" width="11.84" height="7.77" rx="1.11" ry="1.11" fill="none" stroke="white" stroke-width="9.3" pointer-events="stroke" visibility="hidden"/><rect x="2.59" y="12.21" width="11.84" height="7.77" rx="1.11" ry="1.11" fill="none" stroke="#000000" stroke-width="1.3" pointer-events="all"/><rect x="15.17" y="9.62" width="1.48" height="5.92" rx="0.74" ry="0.74" fill="#ffffff" stroke="#000000" stroke-width="1.3" pointer-events="all"/><rect x="15.17" y="9.62" width="1.48" height="4.07" rx="0.74" ry="0.74" fill="none" stroke="white" stroke-width="9.3" pointer-events="stroke" visibility="hidden"/><rect x="15.17" y="9.62" width="1.48" height="4.07" rx="0.74" ry="0.74" fill="none" stroke="#000000" stroke-width="1.3" pointer-events="all"/><rect x="17.39" y="12.21" width="11.84" height="7.77" rx="1.11" ry="1.11" fill="none" stroke="white" stroke-width="9.3" pointer-events="stroke" visibility="hidden"/><rect x="17.39" y="12.21" width="11.84" height="7.77" rx="1.11" ry="1.11" fill="none" stroke="#000000" stroke-width="1.3" pointer-events="all"/><ellipse cx="12.21" cy="14.8" rx="0.925" ry="0.925" fill="#000000" stroke="none" pointer-events="all"/><ellipse cx="19.61" cy="14.8" rx="0.925" ry="0.925" fill="#000000" stroke="none" pointer-events="all"/></g></g><g/><g/></g></svg>