<svg xmlns="http://www.w3.org/2000/svg" width="32" height="30" viewBox="0 0 32 30"><g><g/><g><g transform="translate(0.5,0.5)" style="visibility: visible;"><ellipse cx="15.99" cy="14.95" rx="13" ry="13" fill="#ffffff" stroke="#000000" stroke-width="1.3" pointer-events="all"/><ellipse cx="15.99" cy="14.95" rx="1.3" ry="1.3" fill="none" stroke="white" stroke-width="9.3" pointer-events="stroke" visibility="hidden"/><ellipse cx="15.99" cy="14.95" rx="1.3" ry="1.3" fill="none" stroke="#000000" stroke-width="1.3" pointer-events="all"/><path d="M 15.99 1.95 L 15.99 13.65 M 22.3 3.51 L 16.64 13.78 M 27.43 8.64 L 17.16 14.3 M 28.99 14.95 L 17.29 14.95 M 22.26 26.32 L 16.64 16.12 M 15.99 27.95 L 15.99 16.25 M 9.75 26.32 L 15.34 16.12 M 4.58 21.22 L 14.82 15.6 M 2.99 14.95 L 14.69 14.95 M 4.62 8.71 L 14.82 14.3 M 9.75 3.61 L 15.34 13.78" fill="none" stroke="white" stroke-width="9.3" stroke-miterlimit="10" pointer-events="stroke" visibility="hidden"/><path d="M 15.99 1.95 L 15.99 13.65 M 22.3 3.51 L 16.64 13.78 M 27.43 8.64 L 17.16 14.3 M 28.99 14.95 L 17.29 14.95 M 22.26 26.32 L 16.64 16.12 M 15.99 27.95 L 15.99 16.25 M 9.75 26.32 L 15.34 16.12 M 4.58 21.22 L 14.82 15.6 M 2.99 14.95 L 14.69 14.95 M 4.62 8.71 L 14.82 14.3 M 9.75 3.61 L 15.34 13.78" fill="none" stroke="#000000" stroke-width="1.3" stroke-miterlimit="10" pointer-events="all"/></g></g><g/><g/></g></svg>