<svg xmlns="http://www.w3.org/2000/svg" width="32" height="30" viewBox="0 0 32 30"><g><g/><g><g transform="translate(0.5,0.5)" style="visibility: visible;"><rect x="4.06" y="15.66" width="23.2" height="10.44" fill="#ffffff" stroke="#000000" stroke-width="1.3" pointer-events="all"/><rect x="6.96" y="2.9" width="16.24" height="11.6" fill="#ffffff" stroke="#000000" stroke-width="1.3" pointer-events="all"/><rect x="1.16" y="4.06" width="29" height="8.7" fill="#ffffff" stroke="#000000" stroke-width="1.3" pointer-events="all"/><rect x="5.22" y="18.56" width="11.6" height="5.8" fill="none" stroke="white" stroke-width="9.3" pointer-events="stroke" visibility="hidden"/><rect x="5.22" y="18.56" width="11.6" height="5.8" fill="none" stroke="#000000" stroke-width="1.3" pointer-events="all"/><rect x="21.46" y="18.56" width="4.64" height="5.8" fill="none" stroke="white" stroke-width="9.3" pointer-events="stroke" visibility="hidden"/><rect x="21.46" y="18.56" width="4.64" height="5.8" fill="none" stroke="#000000" stroke-width="1.3" pointer-events="all"/><rect x="17.98" y="22.62" width="2.32" height="1.74" fill="none" stroke="white" stroke-width="9.3" pointer-events="stroke" visibility="hidden"/><rect x="17.98" y="22.62" width="2.32" height="1.74" fill="none" stroke="#000000" stroke-width="1.3" pointer-events="all"/><rect x="17.98" y="18.56" width="2.32" height="1.74" fill="none" stroke="white" stroke-width="9.3" pointer-events="stroke" visibility="hidden"/><rect x="17.98" y="18.56" width="2.32" height="1.74" fill="none" stroke="#000000" stroke-width="1.3" pointer-events="all"/><path d="M 1.16 5.8 L 30.16 5.8" fill="none" stroke="white" stroke-width="9.3" stroke-miterlimit="10" pointer-events="stroke" visibility="hidden"/><path d="M 1.16 5.8 L 30.16 5.8" fill="none" stroke="#000000" stroke-width="1.3" stroke-miterlimit="10" pointer-events="all"/><rect x="2.9" y="6.96" width="25.52" height="4.64" fill="none" stroke="white" stroke-width="9.3" pointer-events="stroke" visibility="hidden"/><rect x="2.9" y="6.96" width="25.52" height="4.64" fill="none" stroke="#000000" stroke-width="1.3" pointer-events="all"/></g></g><g/><g/></g></svg>