<svg xmlns="http://www.w3.org/2000/svg" width="32" height="30" viewBox="0 0 32 30"><g><g/><g><g transform="translate(0.5,0.5)" style="visibility: visible;"><path d="M 19.1 4.87 L 19.65 9.4 C 19.76 10.06 19.47 10.73 18.92 11.1 C 17.03 11.4 15.1 11.4 13.2 11.1 C 12.65 10.73 12.36 10.06 12.47 9.4 L 13.02 4.87 C 13.13 4.37 13.65 3.98 14.31 3.92 L 17.81 3.92 C 18.47 3.98 19 4.37 19.1 4.87 Z M 14.16 3.92 L 13.21 2.73 M 15.21 3.92 L 14.9 2.56 M 16.47 3.92 L 16.89 2.56 M 17.53 3.92 L 18.58 2.73 M 18.89 2.79 C 16.95 2.48 14.95 2.48 13 2.79 L 12.16 2.04 C 14.65 1.52 17.24 1.52 19.74 2.04 Z" fill="#ffffff" stroke="#000000" stroke-width="1.3" stroke-linejoin="round" stroke-miterlimit="10" pointer-events="all"/></g><g transform="translate(0.5,0.5)" style="visibility: visible;"><path d="M 19.1 21.59 L 19.65 26.12 C 19.76 26.78 19.47 27.45 18.92 27.82 C 17.03 28.12 15.1 28.12 13.2 27.82 C 12.65 27.45 12.36 26.78 12.47 26.12 L 13.02 21.59 C 13.13 21.09 13.65 20.7 14.31 20.64 L 17.81 20.64 C 18.47 20.7 19 21.09 19.1 21.59 Z M 14.16 20.64 L 13.21 19.45 M 15.21 20.64 L 14.9 19.28 M 16.47 20.64 L 16.89 19.28 M 17.53 20.64 L 18.58 19.45 M 18.89 19.51 C 16.95 19.2 14.95 19.2 13 19.51 L 12.16 18.76 C 14.65 18.24 17.24 18.24 19.74 18.76 Z" fill="#ffffff" stroke="#000000" stroke-width="1.3" stroke-linejoin="round" stroke-miterlimit="10" transform="rotate(180,15.96,23.18)" pointer-events="all"/></g><g transform="translate(0.5,0.5)" style="visibility: visible;"><path d="M 10.74 13.23 L 11.29 17.76 C 11.4 18.42 11.11 19.09 10.56 19.46 C 8.67 19.76 6.74 19.76 4.84 19.46 C 4.29 19.09 4 18.42 4.11 17.76 L 4.66 13.23 C 4.77 12.73 5.29 12.34 5.95 12.28 L 9.45 12.28 C 10.11 12.34 10.64 12.73 10.74 13.23 Z M 5.8 12.28 L 4.85 11.09 M 6.85 12.28 L 6.54 10.92 M 8.11 12.28 L 8.53 10.92 M 9.17 12.28 L 10.22 11.09 M 10.53 11.15 C 8.59 10.84 6.59 10.84 4.64 11.15 L 3.8 10.4 C 6.29 9.88 8.88 9.88 11.38 10.4 Z" fill="#ffffff" stroke="#000000" stroke-width="1.3" stroke-linejoin="round" stroke-miterlimit="10" transform="rotate(270,7.6,14.82)" pointer-events="all"/></g><g transform="translate(0.5,0.5)" style="visibility: visible;"><path d="M 27.46 13.23 L 28.01 17.76 C 28.12 18.42 27.83 19.09 27.28 19.46 C 25.39 19.76 23.46 19.76 21.56 19.46 C 21.01 19.09 20.72 18.42 20.83 17.76 L 21.38 13.23 C 21.49 12.73 22.01 12.34 22.67 12.28 L 26.17 12.28 C 26.83 12.34 27.36 12.73 27.46 13.23 Z M 22.52 12.28 L 21.57 11.09 M 23.57 12.28 L 23.26 10.92 M 24.83 12.28 L 25.25 10.92 M 25.89 12.28 L 26.94 11.09 M 27.25 11.15 C 25.31 10.84 23.31 10.84 21.36 11.15 L 20.52 10.4 C 23.01 9.88 25.6 9.88 28.1 10.4 Z" fill="#ffffff" stroke="#000000" stroke-width="1.3" stroke-linejoin="round" stroke-miterlimit="10" transform="rotate(90,24.32,14.82)" pointer-events="all"/></g><g transform="translate(0.5,0.5)" style="visibility: visible;"><ellipse cx="15.96" cy="14.82" rx="9.5" ry="9.5" fill="#ffffff" stroke="#000000" stroke-width="1.3" pointer-events="all"/></g></g><g/><g/></g></svg>