<svg xmlns="http://www.w3.org/2000/svg" width="32" height="30" viewBox="0 0 32 30"><g><g/><g><g transform="translate(0.5,0.5)" style="visibility: visible;"><path d="M 21.99 4.91 L 23.1 13.82 C 23.31 15.13 22.73 16.44 21.62 17.16 C 17.84 17.76 13.98 17.76 10.2 17.16 C 9.09 16.44 8.51 15.13 8.72 13.82 L 9.83 4.91 C 10.04 3.93 11.09 3.17 12.41 3.06 L 19.41 3.06 C 20.73 3.17 21.78 3.93 21.99 4.91 Z" fill="#ffffff" stroke="#000000" stroke-width="1.3" stroke-miterlimit="10" pointer-events="all"/><path d="M 21.71 2.87 C 22.01 2.99 22.18 3.36 22.08 3.7 C 21.97 4.05 21.64 4.23 21.34 4.12 C 17.69 3.22 13.92 3.22 10.28 4.12 C 10.05 4.05 9.86 3.86 9.79 3.61 C 9.71 3.36 9.76 3.08 9.91 2.87 C 13.79 1.85 17.83 1.85 21.71 2.87" fill="#ffffff" stroke="#000000" stroke-width="1.3" stroke-miterlimit="10" pointer-events="all"/></g><g transform="translate(0.5,0.5)" style="visibility: visible;"><rect x="1.11" y="9.25" width="29.6" height="18.5" fill="#ffffff" stroke="#000000" stroke-width="1.3" pointer-events="all"/></g><g transform="translate(0.5,0.5)" style="visibility: visible;"><rect x="8.51" y="21.09" width="14.8" height="6.66" fill="#ffffff" stroke="#000000" stroke-width="1.3" transform="translate(0,20.35)scale(1,-1)translate(0,-20.35)" pointer-events="all"/><rect x="10.36" y="12.95" width="10.36" height="7.4" fill="#ffffff" stroke="#000000" stroke-width="1.3" transform="translate(0,20.35)scale(1,-1)translate(0,-20.35)" pointer-events="all"/><rect x="6.66" y="13.69" width="18.5" height="5.55" fill="#ffffff" stroke="#000000" stroke-width="1.3" transform="translate(0,20.35)scale(1,-1)translate(0,-20.35)" pointer-events="all"/><rect x="9.25" y="22.94" width="7.4" height="3.7" fill="none" stroke="white" stroke-width="9.3" transform="translate(0,20.35)scale(1,-1)translate(0,-20.35)" pointer-events="stroke" visibility="hidden"/><rect x="9.25" y="22.94" width="7.4" height="3.7" fill="none" stroke="#000000" stroke-width="1.3" transform="translate(0,20.35)scale(1,-1)translate(0,-20.35)" pointer-events="all"/><rect x="19.61" y="22.94" width="2.96" height="3.7" fill="none" stroke="white" stroke-width="9.3" transform="translate(0,20.35)scale(1,-1)translate(0,-20.35)" pointer-events="stroke" visibility="hidden"/><rect x="19.61" y="22.94" width="2.96" height="3.7" fill="none" stroke="#000000" stroke-width="1.3" transform="translate(0,20.35)scale(1,-1)translate(0,-20.35)" pointer-events="all"/><rect x="17.39" y="25.53" width="1.48" height="1.11" fill="none" stroke="white" stroke-width="9.3" transform="translate(0,20.35)scale(1,-1)translate(0,-20.35)" pointer-events="stroke" visibility="hidden"/><rect x="17.39" y="25.53" width="1.48" height="1.11" fill="none" stroke="#000000" stroke-width="1.3" transform="translate(0,20.35)scale(1,-1)translate(0,-20.35)" pointer-events="all"/><rect x="17.39" y="22.94" width="1.48" height="1.11" fill="none" stroke="white" stroke-width="9.3" transform="translate(0,20.35)scale(1,-1)translate(0,-20.35)" pointer-events="stroke" visibility="hidden"/><rect x="17.39" y="22.94" width="1.48" height="1.11" fill="none" stroke="#000000" stroke-width="1.3" transform="translate(0,20.35)scale(1,-1)translate(0,-20.35)" pointer-events="all"/><path d="M 6.66 14.8 L 25.16 14.8" fill="none" stroke="white" stroke-width="9.3" stroke-miterlimit="10" transform="translate(0,20.35)scale(1,-1)translate(0,-20.35)" pointer-events="stroke" visibility="hidden"/><path d="M 6.66 14.8 L 25.16 14.8" fill="none" stroke="#000000" stroke-width="1.3" stroke-miterlimit="10" transform="translate(0,20.35)scale(1,-1)translate(0,-20.35)" pointer-events="all"/><rect x="7.77" y="15.54" width="16.28" height="2.96" fill="none" stroke="white" stroke-width="9.3" transform="translate(0,20.35)scale(1,-1)translate(0,-20.35)" pointer-events="stroke" visibility="hidden"/><rect x="7.77" y="15.54" width="16.28" height="2.96" fill="none" stroke="#000000" stroke-width="1.3" transform="translate(0,20.35)scale(1,-1)translate(0,-20.35)" pointer-events="all"/></g></g><g/><g/></g></svg>