<svg xmlns="http://www.w3.org/2000/svg" width="32" height="30" viewBox="0 0 32 30"><g><g/><g><g transform="translate(0.5,0.5)" style="visibility: visible;"><path d="M 9.31 9.38 L 9.58 11.55 C 9.63 11.87 9.49 12.19 9.22 12.36 C 8.3 12.51 7.36 12.51 6.44 12.36 C 6.17 12.19 6.03 11.87 6.08 11.55 L 6.35 9.38 C 6.4 9.15 6.66 8.96 6.98 8.93 L 8.68 8.93 C 9 8.96 9.26 9.15 9.31 9.38 Z" fill="#ffffff" stroke="#000000" stroke-width="1.3" stroke-miterlimit="10" pointer-events="all"/><path d="M 9.24 8.89 C 9.31 8.92 9.35 9.01 9.33 9.09 C 9.31 9.17 9.22 9.22 9.15 9.19 C 8.26 8.97 7.35 8.97 6.46 9.19 C 6.4 9.18 6.36 9.13 6.34 9.07 C 6.32 9.01 6.33 8.94 6.37 8.89 C 7.31 8.64 8.3 8.64 9.24 8.89" fill="#ffffff" stroke="#000000" stroke-width="1.3" stroke-miterlimit="10" pointer-events="all"/></g><g transform="translate(0.5,0.5)" style="visibility: visible;"><path d="M 9.31 18.11 L 9.58 20.28 C 9.63 20.6 9.49 20.92 9.22 21.09 C 8.3 21.24 7.36 21.24 6.44 21.09 C 6.17 20.92 6.03 20.6 6.08 20.28 L 6.35 18.11 C 6.4 17.88 6.66 17.69 6.98 17.66 L 8.68 17.66 C 9 17.69 9.26 17.88 9.31 18.11 Z" fill="#ffffff" stroke="#000000" stroke-width="1.3" stroke-miterlimit="10" transform="rotate(180,7.83,19.31)" pointer-events="all"/><path d="M 9.24 17.62 C 9.31 17.65 9.35 17.74 9.33 17.82 C 9.31 17.9 9.22 17.95 9.15 17.92 C 8.26 17.7 7.35 17.7 6.46 17.92 C 6.4 17.91 6.36 17.86 6.34 17.8 C 6.32 17.74 6.33 17.67 6.37 17.62 C 7.31 17.37 8.3 17.37 9.24 17.62" fill="#ffffff" stroke="#000000" stroke-width="1.3" stroke-miterlimit="10" transform="rotate(180,7.83,19.31)" pointer-events="all"/></g><g transform="translate(0.5,0.5)" style="visibility: visible;"><path d="M 4.94 13.75 L 5.21 15.92 C 5.27 16.24 5.12 16.55 4.86 16.73 C 3.93 16.88 3 16.88 2.07 16.73 C 1.81 16.55 1.66 16.24 1.72 15.92 L 1.99 13.75 C 2.04 13.51 2.29 13.33 2.61 13.3 L 4.32 13.3 C 4.64 13.33 4.89 13.51 4.94 13.75 Z" fill="#ffffff" stroke="#000000" stroke-width="1.3" stroke-miterlimit="10" transform="rotate(270,3.46,14.94)" pointer-events="all"/><path d="M 4.87 13.25 C 4.95 13.28 4.99 13.37 4.96 13.46 C 4.94 13.54 4.86 13.58 4.79 13.56 C 3.9 13.34 2.98 13.34 2.09 13.56 C 2.04 13.54 1.99 13.49 1.98 13.43 C 1.96 13.37 1.97 13.3 2 13.25 C 2.95 13.01 3.93 13.01 4.87 13.25" fill="#ffffff" stroke="#000000" stroke-width="1.3" stroke-miterlimit="10" transform="rotate(270,3.46,14.94)" pointer-events="all"/></g><g transform="translate(0.5,0.5)" style="visibility: visible;"><path d="M 29.87 13.75 L 30.14 15.92 C 30.2 16.24 30.05 16.55 29.79 16.73 C 28.86 16.88 27.93 16.88 27 16.73 C 26.74 16.55 26.59 16.24 26.65 15.92 L 26.92 13.75 C 26.97 13.51 27.22 13.33 27.54 13.3 L 29.25 13.3 C 29.57 13.33 29.82 13.51 29.87 13.75 Z" fill="#ffffff" stroke="#000000" stroke-width="1.3" stroke-miterlimit="10" transform="rotate(90,28.39,14.94)" pointer-events="all"/><path d="M 29.8 13.25 C 29.88 13.28 29.92 13.37 29.89 13.46 C 29.87 13.54 29.79 13.58 29.72 13.56 C 28.83 13.34 27.91 13.34 27.02 13.56 C 26.97 13.54 26.92 13.49 26.91 13.43 C 26.89 13.37 26.9 13.3 26.93 13.25 C 27.88 13.01 28.86 13.01 29.8 13.25" fill="#ffffff" stroke="#000000" stroke-width="1.3" stroke-miterlimit="10" transform="rotate(90,28.39,14.94)" pointer-events="all"/></g><g transform="translate(0.5,0.5)" style="visibility: visible;"><path d="M 14.71 9.38 L 14.98 11.55 C 15.03 11.87 14.89 12.19 14.62 12.36 C 13.7 12.51 12.76 12.51 11.84 12.36 C 11.57 12.19 11.43 11.87 11.48 11.55 L 11.75 9.38 C 11.8 9.15 12.06 8.96 12.38 8.93 L 14.08 8.93 C 14.4 8.96 14.66 9.15 14.71 9.38 Z" fill="#ffffff" stroke="#000000" stroke-width="1.3" stroke-miterlimit="10" pointer-events="all"/><path d="M 14.64 8.89 C 14.71 8.92 14.75 9.01 14.73 9.09 C 14.71 9.17 14.62 9.22 14.55 9.19 C 13.66 8.97 12.75 8.97 11.86 9.19 C 11.8 9.18 11.76 9.13 11.74 9.07 C 11.72 9.01 11.73 8.94 11.77 8.89 C 12.71 8.64 13.7 8.64 14.64 8.89" fill="#ffffff" stroke="#000000" stroke-width="1.3" stroke-miterlimit="10" pointer-events="all"/></g><g transform="translate(0.5,0.5)" style="visibility: visible;"><path d="M 14.71 18.11 L 14.98 20.28 C 15.03 20.6 14.89 20.92 14.62 21.09 C 13.7 21.24 12.76 21.24 11.84 21.09 C 11.57 20.92 11.43 20.6 11.48 20.28 L 11.75 18.11 C 11.8 17.88 12.06 17.69 12.38 17.66 L 14.08 17.66 C 14.4 17.69 14.66 17.88 14.71 18.11 Z" fill="#ffffff" stroke="#000000" stroke-width="1.3" stroke-miterlimit="10" transform="rotate(180,13.23,19.31)" pointer-events="all"/><path d="M 14.64 17.62 C 14.71 17.65 14.75 17.74 14.73 17.82 C 14.71 17.9 14.62 17.95 14.55 17.92 C 13.66 17.7 12.75 17.7 11.86 17.92 C 11.8 17.91 11.76 17.86 11.74 17.8 C 11.72 17.74 11.73 17.67 11.77 17.62 C 12.71 17.37 13.7 17.37 14.64 17.62" fill="#ffffff" stroke="#000000" stroke-width="1.3" stroke-miterlimit="10" transform="rotate(180,13.23,19.31)" pointer-events="all"/></g><g transform="translate(0.5,0.5)" style="visibility: visible;"><path d="M 20.11 9.38 L 20.38 11.55 C 20.43 11.87 20.29 12.19 20.02 12.36 C 19.1 12.51 18.16 12.51 17.24 12.36 C 16.97 12.19 16.83 11.87 16.88 11.55 L 17.15 9.38 C 17.2 9.15 17.46 8.96 17.78 8.93 L 19.48 8.93 C 19.8 8.96 20.06 9.15 20.11 9.38 Z" fill="#ffffff" stroke="#000000" stroke-width="1.3" stroke-miterlimit="10" pointer-events="all"/><path d="M 20.04 8.89 C 20.11 8.92 20.15 9.01 20.13 9.09 C 20.11 9.17 20.02 9.22 19.95 9.19 C 19.06 8.97 18.15 8.97 17.26 9.19 C 17.2 9.18 17.16 9.13 17.14 9.07 C 17.12 9.01 17.13 8.94 17.17 8.89 C 18.11 8.64 19.1 8.64 20.04 8.89" fill="#ffffff" stroke="#000000" stroke-width="1.3" stroke-miterlimit="10" pointer-events="all"/></g><g transform="translate(0.5,0.5)" style="visibility: visible;"><path d="M 20.11 18.11 L 20.38 20.28 C 20.43 20.6 20.29 20.92 20.02 21.09 C 19.1 21.24 18.16 21.24 17.24 21.09 C 16.97 20.92 16.83 20.6 16.88 20.28 L 17.15 18.11 C 17.2 17.88 17.46 17.69 17.78 17.66 L 19.48 17.66 C 19.8 17.69 20.06 17.88 20.11 18.11 Z" fill="#ffffff" stroke="#000000" stroke-width="1.3" stroke-miterlimit="10" transform="rotate(180,18.63,19.31)" pointer-events="all"/><path d="M 20.04 17.62 C 20.11 17.65 20.15 17.74 20.13 17.82 C 20.11 17.9 20.02 17.95 19.95 17.92 C 19.06 17.7 18.15 17.7 17.26 17.92 C 17.2 17.91 17.16 17.86 17.14 17.8 C 17.12 17.74 17.13 17.67 17.17 17.62 C 18.11 17.37 19.1 17.37 20.04 17.62" fill="#ffffff" stroke="#000000" stroke-width="1.3" stroke-miterlimit="10" transform="rotate(180,18.63,19.31)" pointer-events="all"/></g><g transform="translate(0.5,0.5)" style="visibility: visible;"><path d="M 25.51 9.38 L 25.78 11.55 C 25.83 11.87 25.69 12.19 25.42 12.36 C 24.5 12.51 23.56 12.51 22.64 12.36 C 22.37 12.19 22.23 11.87 22.28 11.55 L 22.55 9.38 C 22.6 9.15 22.86 8.96 23.18 8.93 L 24.88 8.93 C 25.2 8.96 25.46 9.15 25.51 9.38 Z" fill="#ffffff" stroke="#000000" stroke-width="1.3" stroke-miterlimit="10" pointer-events="all"/><path d="M 25.44 8.89 C 25.51 8.92 25.55 9.01 25.53 9.09 C 25.51 9.17 25.42 9.22 25.35 9.19 C 24.46 8.97 23.55 8.97 22.66 9.19 C 22.6 9.18 22.56 9.13 22.54 9.07 C 22.52 9.01 22.53 8.94 22.57 8.89 C 23.51 8.64 24.5 8.64 25.44 8.89" fill="#ffffff" stroke="#000000" stroke-width="1.3" stroke-miterlimit="10" pointer-events="all"/></g><g transform="translate(0.5,0.5)" style="visibility: visible;"><path d="M 25.51 18.11 L 25.78 20.28 C 25.83 20.6 25.69 20.92 25.42 21.09 C 24.5 21.24 23.56 21.24 22.64 21.09 C 22.37 20.92 22.23 20.6 22.28 20.28 L 22.55 18.11 C 22.6 17.88 22.86 17.69 23.18 17.66 L 24.88 17.66 C 25.2 17.69 25.46 17.88 25.51 18.11 Z" fill="#ffffff" stroke="#000000" stroke-width="1.3" stroke-miterlimit="10" transform="rotate(180,24.03,19.31)" pointer-events="all"/><path d="M 25.44 17.62 C 25.51 17.65 25.55 17.74 25.53 17.82 C 25.51 17.9 25.42 17.95 25.35 17.92 C 24.46 17.7 23.55 17.7 22.66 17.92 C 22.6 17.91 22.56 17.86 22.54 17.8 C 22.52 17.74 22.53 17.67 22.57 17.62 C 23.51 17.37 24.5 17.37 25.44 17.62" fill="#ffffff" stroke="#000000" stroke-width="1.3" stroke-miterlimit="10" transform="rotate(180,24.03,19.31)" pointer-events="all"/></g><g transform="translate(0.5,0.5)" style="visibility: visible;"><ellipse cx="15.93" cy="14.94" rx="12.6" ry="4.5" fill="#ffffff" stroke="#000000" stroke-width="1.3" pointer-events="all"/></g></g><g/><g/></g></svg>