<svg xmlns="http://www.w3.org/2000/svg" viewBox="0 0 29.261 22.667">
    <defs>
        <style>
            .cls-1{fill:none;stroke:#1181c2;stroke-linecap:round;stroke-linejoin:round;stroke-miterlimit:10}.cls-2{fill:#1181c2}
        </style>
    </defs>
    <g id="Group_1002" data-name="Group 1002" transform="translate(.5 3)">
        <path id="Path_99" d="M26.667 12.536a7.536 7.536 0 1 0-15.072 0H5v14.13h28.261v-14.13z" class="cls-1" data-name="Path 99" transform="translate(-5 -7.5)"/>
        <g id="Group_995" data-name="Group 995" transform="translate(7.348 129)">
            <path id="Path_397" d="M.108-122.794A41.751 41.751 0 0 0 0-118.369c0 3.633.022 4.251.173 4.457.163.239.184.239 3.253.239h3.08v1.518H3.8v.868h6.29v-.868H7.375v-1.518h3.08c3.069 0 3.091 0 3.253-.239.152-.206.173-.824.173-4.457a41.762 41.762 0 0 0-.108-4.425c-.108-.2-.3-.206-6.832-.206s-6.724.011-6.833.206zm12.8 4.425v3.773H.976v-7.537H12.9v3.764z" class="cls-2" data-name="Path 397"/>
            <path id="Path_398" d="M49.4-88.333a1.349 1.349 0 0 0-.759 1.149l-.065.445.445-.022c.39-.033.456-.065.51-.336a.619.619 0 0 1 1.193-.152c.141.423-.065.737-1.03 1.529a2.683 2.683 0 0 0-.987 1.149 1.554 1.554 0 0 0-.13.607c.044.108.456.141 1.627.141h1.561l-.033-.412-.033-.4h-.889a4.067 4.067 0 0 1-.943-.065c-.044-.033.271-.314.683-.618.933-.683 1.139-.976 1.139-1.648a1.371 1.371 0 0 0-.629-1.247 2.2 2.2 0 0 0-1.66-.12z" class="cls-2" data-name="Path 398" transform="translate(-45.467 -32.346)"/>
            <path id="Path_399" d="M104.815-82.276a9.994 9.994 0 0 0 .64 1.008l.629.943-.585.868c-.922 1.355-.911 1.247-.108 1.247.662 0 .705-.022.824-.3a4.09 4.09 0 0 1 .325-.6l.2-.3.347.6.336.607h1.421l-.64-.954c-.347-.52-.673-1-.705-1.074a2.674 2.674 0 0 1 .5-.976c.314-.466.618-.911.662-.987.054-.1-.087-.13-.575-.13h-.662l-.3.542a2.467 2.467 0 0 1-.347.542 2.486 2.486 0 0 1-.347-.542l-.3-.542h-.651a1.918 1.918 0 0 0-.664.048z" class="cls-2" data-name="Path 399" transform="translate(-98.091 -38.068)"/>
        </g>
    </g>
</svg>
